<?xml version="1.0" encoding="iso-8859-1"?>
<!-- Uploaded to: SVG Repo, www.svgrepo.com, Generator: SVG Repo Mixer Tools -->
<svg fill="#000000" height="800px" width="800px" version="1.1" id="Layer_1" xmlns="http://www.w3.org/2000/svg" xmlns:xlink="http://www.w3.org/1999/xlink" 
	 viewBox="0 0 512 512" xml:space="preserve">
<g>
	<g>
		<path d="M435.2,128c-28.8,28.8-57.6,76.8-67.2,105.6c28.8,38.4,76.8,57.6,0,134.4s-96,28.877-134.4,0
			c-28.8,9.6-76.8,38.477-105.6,67.2c0,28.8,38.4,76.8,96,76.8c48,0,134.4-19.2,201.6-86.4S512,272,512,224
			C512,166.4,464,128,435.2,128z M412.023,412.023C358.494,465.545,284.177,492.8,224,492.8
			c-24.004-0.964-46.874-10.82-63.215-28.809c-5.112-5.623-7.97-12.937-11.955-19.413l-0.375-2.159
			c23.347-22.17,51.601-37.444,80.017-51.874l1.604-0.614l5.06,4.446c1.374,1.246,6.613,6.042,5.982,5.461
			c2.492,2.278,4.369,3.959,6.238,5.598c40.721,35.644,77.611,32.768,134.221-23.859c56.61-56.602,59.469-93.474,23.825-134.221
			c-1.621-1.852-3.294-3.712-5.547-6.195c0.546,0.606-4.19-4.565-5.41-5.931l-4.523-5.146l0.631-1.638
			c11.827-28.314,30.131-52.531,48.708-76.587l3.149-3.396l2.167,0.375c6.468,3.985,13.79,6.835,19.413,11.955
			c15.616,14.182,21.666,28.194,27.324,48.239c1.365,4.83,0.99,9.984,1.485,14.976C492.8,284.177,465.545,358.494,412.023,412.023z"
			/>
	</g>
</g>
<g>
	<g>
		<path d="M203.247,270.234c-2.278-2.278-5.291-3.473-8.721-3.473h-66.714c1.203-5.274,3.174-9.779,5.896-13.449
			c4.685-6.502,13.841-14.003,27.486-22.511l3.746-2.628c13.739-8.713,22.647-15.522,27.204-20.804
			c7.552-8.653,11.375-19.891,11.375-33.417c0-12.587-4.241-23.364-12.604-32.051c-9.353-9.651-21.803-14.549-37-14.549
			c-15.352,0-27.81,4.915-37.052,14.601c-8.201,8.661-12.348,19.422-12.348,32v5.197c0,4.864,1.877,7.953,3.678,9.924
			c4.804,4.804,13.278,4.591,17.621,0.213c2.671-2.423,4.096-5.726,4.096-9.54v-5.803c0-6.366,1.911-11.46,5.871-15.642
			c4.378-4.685,10.308-6.963,18.125-6.963c7.851,0,13.85,2.304,18.364,7.014c3.925,4.122,5.837,9.225,5.837,15.59
			c0,8.201-2.423,14.925-7.313,20.463c-4.207,4.608-12.834,10.965-25.557,18.867c-14.788,8.875-25.839,18.748-32.836,29.338
			c-7.902,11.836-11.827,25.916-11.674,41.813l0.06,6.34h93.739c3.558,0,6.665-1.365,8.747-3.703
			c2.261-2.287,3.447-5.154,3.447-8.303C206.72,275.482,205.534,272.546,203.247,270.234z"/>
	</g>
</g>
<g>
	<g>
		<path d="M328.448,234.82c-2.278-2.278-5.222-3.473-8.525-3.473h-13.201v-90.786c0-7.612-4.412-12.664-12.365-13.201
			c-4.036,0-9.779,1.434-14.199,8.303l-62.216,95.241c-3.072,4.804-4.113,9.651-3.021,14.609c1.51,6.042,6.221,9.651,12.612,9.651
			h53.999v26.402c-0.008,4.838,2.133,7.757,3.917,9.361c2.364,2.125,5.359,3.234,8.678,3.234c3.174,0,6.11-1.109,8.499-3.251
			c2.671-2.44,4.096-5.666,4.096-9.353v-26.402h12.604c4.659,0,7.561-2.133,8.951-3.703c2.261-2.287,3.447-5.154,3.447-8.303
			C331.725,240.171,330.701,237.414,328.448,234.82z M281.523,231.364H247.1l34.424-53.154V231.364z"/>
	</g>
</g>
<g>
	<g>
		<path d="M217.6,0C97.425,0,0,97.425,0,217.6c0,83.883,47.531,156.553,117.069,192.87c6.741-6.187,13.909-12.262,21.564-18.065
			C72.081,362.223,25.6,295.305,25.6,217.6c0-105.865,86.135-192,192-192c77.696,0,144.606,46.473,174.797,113.007
			c5.803-7.654,11.878-14.822,18.065-21.555C374.144,47.531,301.474,0,217.6,0z"/>
	</g>
</g>
</svg>