<svg version="1.1" xmlns="http://www.w3.org/2000/svg" xmlns:xlink="http://www.w3.org/1999/xlink" width="512" height="512" viewBox="0,0,256,256"><g fill="#000000" fill-rule="nonzero" stroke="none" stroke-width="1" stroke-linecap="butt" stroke-linejoin="miter" stroke-miterlimit="10" stroke-dasharray="" stroke-dashoffset="0" font-family="none" font-weight="none" font-size="none" text-anchor="none" style="mix-blend-mode: normal"><g transform="translate(0.00026,0.00021) scale(0.49998,0.49998)"><g id="XMLID_1321_"><g id="XMLID_396_"><path d="M508.803,192.482l-13.337,-23.101c-2.761,-4.782 -8.873,-6.421 -13.66,-3.66c-4.783,2.761 -6.422,8.877 -3.66,13.66l13.337,23.101c0.704,1.218 0.547,2.378 0.391,2.961c-0.156,0.583 -0.601,1.667 -1.819,2.37l-35.268,20.362c-1.866,1.074 -4.256,0.433 -5.332,-1.429l-70.95,-122.886c-1.076,-1.864 -0.435,-4.256 1.429,-5.333l35.267,-20.361c1.864,-1.074 4.258,-0.436 5.333,1.428l12.612,21.845c2.762,4.784 8.878,6.423 13.66,3.66c4.783,-2.761 6.422,-8.877 3.66,-13.66l-12.612,-21.845c-6.589,-11.413 -21.235,-15.34 -32.652,-8.749l-35.268,20.362c-5.358,3.094 -9.065,7.963 -10.81,13.439h-99.98c-14.037,0 -27.234,5.466 -37.161,15.392l-10.244,10.244c-8.982,-2.141 -18.184,-3.242 -27.438,-3.242h-31.044c-1.551,-5.991 -5.404,-11.383 -11.174,-14.715l-35.268,-20.362c-5.53,-3.193 -11.974,-4.04 -18.139,-2.388c-6.167,1.652 -11.322,5.608 -14.514,11.137l-70.949,122.887c-3.192,5.529 -4.041,11.971 -2.389,18.139c1.652,6.168 5.608,11.322 11.138,14.514l35.268,20.362c3.755,2.168 7.858,3.198 11.911,3.198c1.477,0 2.946,-0.143 4.39,-0.411l28.866,28.867c-0.442,2.269 -0.671,4.596 -0.671,6.96c0,9.609 3.742,18.644 10.537,25.438c6.506,6.505 14.904,9.988 23.439,10.459c-0.131,1.254 -0.202,2.52 -0.202,3.798c0,9.61 3.742,18.644 10.537,25.438c6.795,6.795 15.829,10.537 25.438,10.537c0.261,0 0.519,-0.013 0.779,-0.019c-0.006,0.26 -0.019,0.518 -0.019,0.779c0,9.61 3.742,18.644 10.537,25.438c6.795,6.795 15.829,10.537 25.438,10.537c0.261,0 0.519,-0.013 0.779,-0.019c-0.006,0.26 -0.019,0.518 -0.019,0.779c0,9.609 3.742,18.644 10.537,25.438c6.795,6.794 15.829,10.537 25.438,10.537c9.609,0 18.644,-3.742 25.438,-10.537l14.226,-14.225c4.171,-4.171 7.091,-9.123 8.782,-14.387c6.32,4.664 13.83,6.997 21.343,6.996c9.211,-0.001 18.426,-3.507 25.438,-10.52c4.196,-4.196 7.223,-9.247 8.929,-14.758c5.789,3.785 12.551,5.821 19.629,5.821c9.609,0 18.644,-3.742 25.438,-10.537c5.049,-5.05 8.409,-11.336 9.804,-18.176c3.612,1.196 7.428,1.827 11.343,1.827c9.609,0 18.645,-3.742 25.439,-10.538c14.026,-14.027 14.026,-36.85 0,-50.877l-23.34,-23.34l42.603,-42.603c0.946,0.113 1.899,0.177 2.856,0.177c4.053,0 8.157,-1.03 11.911,-3.197l35.268,-20.361c5.529,-3.193 9.485,-8.347 11.138,-14.515c1.653,-6.168 0.805,-12.607 -2.387,-18.136zM21.961,228.932c-1.218,-0.703 -1.662,-1.786 -1.818,-2.37c-0.156,-0.583 -0.313,-1.743 0.391,-2.962l70.949,-122.888c0.703,-1.218 1.787,-1.662 2.37,-1.818c0.249,-0.066 0.603,-0.133 1.021,-0.133c0.563,0 1.242,0.121 1.94,0.523l35.268,20.362c1.863,1.076 2.505,3.468 1.429,5.332l-70.949,122.887c-1.077,1.863 -3.467,2.505 -5.332,1.429zM111.726,305.227c0,-4.268 1.662,-8.279 4.68,-11.297l8.63,-8.63c3.114,-3.115 7.205,-4.672 11.297,-4.672c4.09,0 8.182,1.558 11.296,4.672c3.018,3.018 4.68,7.029 4.68,11.296c0,4.267 -1.662,8.279 -4.68,11.296l-8.63,8.63c-6.229,6.23 -16.364,6.229 -22.593,0c-3.018,-3.016 -4.68,-7.028 -4.68,-11.295zM161.476,360.898c-4.268,0 -8.279,-1.662 -11.296,-4.679c-3.018,-3.017 -4.68,-7.029 -4.68,-11.296c0,-4.267 1.662,-8.279 4.68,-11.296l14.225,-14.225c3.114,-3.114 7.205,-4.671 11.296,-4.671c4.092,0 8.183,1.557 11.297,4.671c3.018,3.017 4.68,7.029 4.68,11.296c0,4.267 -1.662,8.279 -4.68,11.296l-14.225,14.225c-3.018,3.018 -7.03,4.679 -11.297,4.679zM198.211,397.634c-4.268,0 -8.279,-1.662 -11.296,-4.679c-3.018,-3.017 -4.68,-7.029 -4.68,-11.296c0,-4.267 1.662,-8.279 4.68,-11.297l14.225,-14.225c3.114,-3.114 7.205,-4.671 11.296,-4.671c4.091,0 8.183,1.557 11.297,4.672c3.018,3.017 4.68,7.029 4.68,11.296c0,4.267 -1.662,8.279 -4.68,11.296l-14.225,14.225c-3.017,3.017 -7.029,4.679 -11.297,4.679zM260.468,415.465l-14.226,14.226c-3.017,3.017 -7.028,4.679 -11.296,4.679c-4.268,0 -8.279,-1.662 -11.296,-4.679c-3.018,-3.018 -4.68,-7.029 -4.68,-11.296c0,-4.268 1.662,-8.279 4.68,-11.297l14.225,-14.225c3.114,-3.115 7.205,-4.672 11.297,-4.672c4.09,0 8.182,1.558 11.296,4.671c6.229,6.228 6.229,16.364 0,22.593zM416.614,351.194c-3.018,3.018 -7.029,4.68 -11.297,4.68c-4.267,0 -8.278,-1.662 -11.296,-4.68l-95.45,-95.45c-3.905,-3.904 -10.235,-3.905 -14.143,0c-3.905,3.905 -3.905,10.237 0,14.142l85.6,85.601c3.018,3.017 4.68,7.029 4.68,11.296c0,4.267 -1.662,8.279 -4.68,11.297c-3.017,3.017 -7.028,4.679 -11.296,4.679c-4.268,0 -8.279,-1.662 -11.296,-4.679l-102.861,-102.861c-3.905,-3.904 -10.237,-3.904 -14.143,0c-3.905,3.905 -3.905,10.237 0,14.142l85.6,85.601c3.018,3.017 4.68,7.029 4.68,11.296c0,4.267 -1.662,8.279 -4.68,11.296c-6.228,6.229 -16.363,6.231 -22.593,0l-18.826,-18.826c-0.026,-0.026 -0.055,-0.048 -0.081,-0.073c-7.202,-7.159 -16.702,-10.628 -26.138,-10.425c0.006,-0.265 0.019,-0.529 0.019,-0.796c0,-9.609 -3.742,-18.644 -10.537,-25.439c-7.211,-7.211 -16.747,-10.704 -26.218,-10.501c0.006,-0.265 0.019,-0.529 0.019,-0.795c0,-9.61 -3.742,-18.644 -10.537,-25.439c-7.886,-7.886 -18.553,-11.337 -28.873,-10.356c-0.413,-8.973 -4.102,-17.351 -10.496,-23.745c-14.027,-14.027 -36.851,-14.024 -50.878,0l-8.63,8.63c-0.01,0.01 -0.02,0.021 -0.03,0.031l-22.206,-22.206l69.613,-120.574h34.66c3.396,0 6.783,0.18 10.151,0.53l-11.431,11.431c-6.795,6.795 -10.537,15.83 -10.537,25.439c0,9.61 3.742,18.644 10.537,25.439c7.014,7.013 16.227,10.52 25.438,10.52c9.213,0 18.426,-3.506 25.439,-10.52l26.996,-26.996l155.72,155.719c6.229,6.228 6.229,16.364 0.001,22.592zM320.536,204.239c14.552,-10.532 23.472,-27.528 23.472,-45.993c0,-5.523 -4.478,-10 -10,-10c-5.522,0 -10,4.477 -10,10c0,13.063 -6.9,24.978 -17.909,31.557l-38.088,-38.088c-3.906,-3.905 -10.227,-4.007 -14.133,-0.102l-34.123,34.123c-6.229,6.229 -16.364,6.228 -22.593,0c-3.018,-3.017 -4.68,-7.029 -4.68,-11.296c0,-4.267 1.662,-8.279 4.68,-11.297l38.963,-38.963c6.148,-6.148 14.323,-9.534 23.019,-9.534h102.495l70.495,122.102c0.167,0.289 0.349,0.564 0.526,0.843l-39.386,39.386z" id="XMLID_429_"></path><path d="M464.308,145.414c2.63,0 5.2,-1.07 7.07,-2.93c1.859,-1.87 2.93,-4.44 2.93,-7.07c0,-2.64 -1.07,-5.21 -2.93,-7.08c-1.87,-1.86 -4.44,-2.92 -7.07,-2.92c-2.64,0 -5.21,1.06 -7.07,2.92c-1.87,1.87 -2.93,4.44 -2.93,7.08c0,2.63 1.06,5.2 2.93,7.07c1.86,1.861 4.43,2.93 7.07,2.93z" id="XMLID_436_"></path></g></g></g></g></svg>