<svg version="1.1" xmlns="http://www.w3.org/2000/svg" xmlns:xlink="http://www.w3.org/1999/xlink" width="471" height="401" viewBox="0,0,256,217.95"><g fill="#000000" fill-rule="evenodd" stroke="none" stroke-width="1" stroke-linecap="butt" stroke-linejoin="miter" stroke-miterlimit="10" stroke-dasharray="" stroke-dashoffset="0" font-family="none" font-weight="none" font-size="none" text-anchor="none" style="mix-blend-mode: normal"><g transform="translate(0,-0.00138) scale(0.54352,0.54352)"><path transform="translate(-991,-400)" d="M1462,703.214c0,38.114 -75.84,58.683 -147.19,58.683c-14.36324,0.01855 -28.71607,-0.77371 -42.99,-2.373c-5.36738,-0.6158 -9.2193,-5.46612 -8.6035,-10.8335c0.6158,-5.36738 5.46612,-9.2193 10.8335,-8.6035c13.53342,1.51733 27.1418,2.2682 40.76,2.249c77.87,0 127.56,-23.172 127.56,-39.122v-9.78c-0.15683,-2.54387 -1.13599,-4.9679 -2.79,-6.907c-27.77,17.345 -77.26,26.473 -124.77,26.473c-5.81,0 -11.56,-0.125 -17.2,-0.368c-3.49841,-0.14351 -6.65326,-2.1461 -8.27203,-5.25079c-1.61876,-3.10469 -1.45448,-6.83785 0.43074,-9.78834c1.88522,-2.95049 5.20379,-4.66822 8.70128,-4.50387c5.35,0.234 10.81,0.35 16.34,0.35c77.87,0 127.56,-23.172 127.56,-39.122v-9.781c-0.15669,-2.5436 -1.13588,-4.96736 -2.79,-6.906c-27.77,17.345 -77.26,26.467 -124.77,26.467c-3.66,0 -7.3,-0.047 -10.89,-0.148c-5.41036,-0.13636 -9.68592,-4.63263 -9.55,-10.043c0.03583,-2.61097 1.12812,-5.09598 3.02754,-6.88781c1.89942,-1.79182 4.44384,-2.73751 7.05246,-2.62119c3.42,0.09067 6.87333,0.137 10.36,0.139c77.87,0 127.56,-23.172 127.56,-39.122v-9.78c-0.15683,-2.54387 -1.13599,-4.9679 -2.79,-6.907c-27.77,17.345 -77.26,26.468 -124.77,26.468c-6.4,0 -12.69333,-0.14833 -18.88,-0.445c-2.59511,-0.11975 -5.03628,-1.26584 -6.78613,-3.18599c-1.74985,-1.92015 -2.66495,-4.45696 -2.54387,-7.05201c0.36732,-5.35643 4.9035,-9.46417 10.27,-9.3c5.87,0.282 11.87,0.426 17.94,0.426c77.87,0 127.56,-23.172 127.56,-39.122v-9.781c-0.15551,-2.54959 -1.13858,-4.97883 -2.8,-6.919c-27.77,17.341 -77.26,26.461 -124.76,26.461c-14.99484,0.01855 -29.97766,-0.84963 -44.87,-2.6c-3.49196,-0.38887 -6.50689,-2.62119 -7.8978,-5.84769c-1.39091,-3.22651 -0.94398,-6.95119 1.17077,-9.75705c2.11475,-2.80586 5.5722,-4.26154 9.05703,-3.81325c14.11937,1.65439 28.32405,2.47414 42.54,2.455c77.87,0 127.56,-23.171 127.56,-39.122v-18.5c-27.15,18.525 -78.42,28.282 -127.56,28.282c-49.17,0 -100.47,-9.77 -127.61,-28.32c-0.56467,5.17656 -5.07221,9.01207 -10.27242,8.74091c-5.2002,-0.27116 -9.28437,-4.55469 -9.30758,-9.76191v-29.351c0,-38.114 75.84,-58.682 147.19,-58.682c71.35,0 147.19,20.568 147.19,58.682v48.9c0,7.14 -2.66,13.663 -7.46,19.552c5.99,7.467 7.46,14.494 7.46,19.589v9.781c0,7.136 -2.66,13.656 -7.45,19.542c5.98,7.463 7.45,14.487 7.45,19.58v9.78c0,7.136 -2.66,13.657 -7.45,19.543c5.98,7.463 7.45,14.486 7.45,19.579v9.781c0,7.136 -2.66,13.656 -7.45,19.542c5.98,7.463 7.45,14.487 7.45,19.58v9.78zM1314.81,419.56c-77.87,0 -127.56,23.172 -127.56,39.122c0,15.95 49.69,39.122 127.56,39.122c77.87,0 127.56,-23.17 127.56,-39.122c0,-15.952 -49.69,-39.122 -127.56,-39.122zM1285.37,654.292c0,80.895 -66.02,146.707 -147.18,146.707c-81.16,0 -147.19,-65.812 -147.19,-146.707c0,-80.895 66.02,-146.707 147.19,-146.707c81.17,0 147.18,65.815 147.18,146.707zM1138.19,527.146c-70.34,0 -127.57,57.035 -127.57,127.146c0,70.111 57.23,127.146 127.57,127.146c70.34,0 127.56,-57.034 127.56,-127.146c0,-70.112 -57.23,-127.146 -127.56,-127.146zM1165.4,667.691h-47.84v14.083h47.84v19.1h-47.84v32.7h-19.14v-32.7h-19.14v-19.1h19.14v-14.083h-19.14v-19.091h19.14v-70.12h66.98c21.10721,-0.00116 38.23203,17.08385 38.28,38.191v12.829c-0.04742,21.10738 -17.17257,38.19271 -38.28,38.191zM1184.54,616.671c-0.01931,-10.55625 -8.58373,-19.10278 -19.14,-19.1h-47.84v51.029h47.84c10.55604,0.00223 19.12014,-8.54398 19.14,-19.1z" id="Icon2.svg"></path></g></g></svg>