<svg version="1.1" xmlns="http://www.w3.org/2000/svg" xmlns:xlink="http://www.w3.org/1999/xlink" width="1504px" height="1500px" viewBox="0,0,256,255.3125"><g fill="#000000" fill-rule="nonzero" stroke="none" stroke-width="1" stroke-linecap="butt" stroke-linejoin="miter" stroke-miterlimit="10" stroke-dasharray="" stroke-dashoffset="0" font-family="none" font-weight="none" font-size="none" text-anchor="none" style="mix-blend-mode: normal"><g transform="translate(0.00064,-0.00332) scale(2.09185,2.09227)"><g id="Слой_x0020_1"><path d="M6.11,0c-3.35,0 -6.11,2.77 -6.11,6.11v109.82c0,3.35 2.76,6.1 6.11,6.1h32.54c2.65,-0.06 2.65,-4.01 0,-4.07h-32.54c-1.16,0 -2.04,-0.86 -2.04,-2.03v-109.82c0,-1.16 0.88,-2.04 2.04,-2.04h63.04v10.18c0,3.34 2.77,6.1 6.11,6.1h10.16v16.27c0,2.71 4.07,2.71 4.07,0v-18.3c0,-0.54 -0.21,-1.06 -0.59,-1.44l-16.28,-16.28c-0.38,-0.38 -0.89,-0.59 -1.43,-0.6zM73.22,6.96l9.32,9.32h-7.28c-1.16,0 -2.04,-0.87 -2.04,-2.03zM25.93,16.28c-2.77,-0.06 -2.77,4.13 0,4.07h33.06c2.77,0.06 2.77,-4.13 0,-4.07zM14.25,32.55h61.01c2.77,0.06 2.77,-4.13 0,-4.07h-61.12c-2.75,0.2 -2.55,4.15 0.11,4.07zM14.25,44.76h8.12c2.77,0.06 2.77,-4.13 0,-4.07h-8.23c-2.75,0.19 -2.55,4.15 0.11,4.07zM30,44.76h41.19c2.78,0.06 2.78,-4.13 0,-4.07h-41.29c-2.76,0.18 -2.56,4.14 0.1,4.07zM90.09,82.42c-1.66,-2.34 -5.09,0.39 -3.17,2.53l19.44,24.26c3.31,4.2 9.6,3.75 13.19,0.16c3.6,-3.6 4,-9.85 -0.17,-13.19l-28.88,-23.12l4.08,-4.08l1.61,1.61c0.79,0.79 2.07,0.79 2.87,0l6.11,-6.09c0.8,-0.8 0.8,-2.09 0,-2.88l-18.3,-18.31c-0.39,-0.39 -0.92,-0.6 -1.47,-0.6c-0.53,0.01 -1.04,0.23 -1.41,0.6l-6.1,6.1c-0.8,0.8 -0.8,2.09 0,2.89l13.81,13.81c-5.18,5.13 -10.26,10.25 -15.43,15.43l-9.32,-9.34l11.78,-11.77c1.33,-1.3 0.37,-3.55 -1.48,-3.5c-0.53,0.02 -1.03,0.24 -1.4,0.62l-11.78,11.78l-1.61,-1.62c-0.4,-0.38 -0.93,-0.6 -1.48,-0.58c-0.53,0 -1.03,0.21 -1.41,0.58l-6.09,6.11c-0.79,0.79 -0.79,2.08 0,2.87l18.3,18.31c0.79,0.8 2.09,0.8 2.88,0l6.1,-6.1c0.78,-0.8 0.78,-2.08 0,-2.87l-1.62,-1.62l8.47,-8.46l29.23,23.4c2.05,1.65 1.87,5.1 -0.17,7.14c-2.04,2.04 -5.52,2.24 -7.14,0.19zM85.43,47.62l15.41,15.44l-3.22,3.21c-5.11,-5.14 -10.27,-10.27 -15.42,-15.42zM14.25,56.95h52.87c2.79,0.24 3.03,-4 0.23,-4.06c-0.08,0 -0.15,0 -0.23,0h-52.98c-2.6,0.32 -2.41,4 0.11,4.06zM14.25,65.09c-2.77,-0.07 -2.77,4.12 0,4.06h16.26c2.77,0.06 2.77,-4.12 0,-4.06zM38.65,65.09c-2.77,-0.07 -2.77,4.12 0,4.06h8.13c2.77,0.06 2.77,-4.12 0,-4.06zM61.01,72.04c5.25,5.29 10.83,10.81 15.44,15.41l-3.23,3.23l-15.42,-15.43zM14.25,77.29c-2.77,-0.06 -2.77,4.13 0,4.07h30.51c2.77,0.06 2.77,-4.13 0,-4.07zM14.25,93.56h8.63c2.77,0.06 2.77,-4.12 0,-4.07h-8.74c-2.75,0.2 -2.55,4.15 0.11,4.07zM30.51,93.56h24.41c2.77,0.06 2.77,-4.12 0,-4.07h-24.51c-2.75,0.19 -2.56,4.14 0.1,4.07zM40.68,105.77c2.77,0.06 2.77,-4.13 0,-4.07h-26.54c-2.75,0.2 -2.55,4.15 0.11,4.07zM50.85,103.73v6.11c-3.35,0 -6.09,2.75 -6.09,6.09v4.07c0,1.12 0.9,2.02 2.02,2.03h40.67c1.13,0 2.04,-0.91 2.04,-2.03v-4.07c0,-3.34 -2.76,-6.09 -6.11,-6.09v-6.11c0,-1.12 -0.91,-2.02 -2.02,-2.03h-28.58c-1.14,0.11 -1.93,0.98 -1.93,2.03zM54.92,105.77h24.39v4.07h-4.05c-2.77,-0.06 -2.77,4.13 0,4.07h8.12c1.16,0 2.04,0.86 2.04,2.02v2.03h-36.61v-2.03c0,-1.16 0.88,-2.02 2.04,-2.02h16.27c2.78,0.06 2.78,-4.13 0,-4.07h-12.2z"></path></g></g></g></svg>