<?xml version="1.0" encoding="UTF-8"?>
<!-- The Best Svg Icon site in the world: iconSvg.co, Visit us! https://iconsvg.co -->
<svg width="800px" height="800px" version="1.1" viewBox="144 144 512 512" xmlns="http://www.w3.org/2000/svg">
 <defs>
  <clipPath id="b">
   <path d="m539 347h112.9v212h-112.9z"/>
  </clipPath>
  <clipPath id="a">
   <path d="m148.09 328h122.91v247h-122.91z"/>
  </clipPath>
 </defs>
 <path d="m309.56 465.91c3.7344-3.6172 6.0625-8.6758 6.0625-14.285 0-10.992-8.9102-19.902-19.902-19.902s-19.902 8.9102-19.902 19.902c0 5.2891 2.0781 10.082 5.4414 13.648h25.262c1.0391 0 2.0586 0.22266 3.0391 0.63672z"/>
 <path d="m290.6 582.42v-46.629h3.4102v46.629c0 5.0234 4.0742 9.0977 9.0977 9.0977s9.0977-4.0742 9.0977-9.0977v-95.09c3.082 6.0469 6.5195 17.434 7.5391 37.633 0.16797 3.3398 2.9336 5.9375 6.2383 5.9375 0.10938 0 0.21484-0.003907 0.32422-0.007813 3.4492-0.17578 6.1055-3.1133 5.9297-6.5625-1.2617-24.453-5.7891-38.023-10.742-45.98-4.9023-7.9766-10.668-9.9258-12.227-10.105-0.039062-0.007813-0.078125-0.007813-0.12109-0.015626-0.78906-0.41406-1.6758-0.67187-2.6289-0.67187h-28.434c-0.95703 0-1.8398 0.25781-2.6289 0.67187-0.039062 0.003907-0.078125 0.007813-0.11328 0.011719v-0.003906c-1.5586 0.18359-7.3281 2.1328-12.227 10.105-4.9531 7.957-9.4805 21.523-10.742 45.98-0.17578 3.4492 2.4805 6.3867 5.9297 6.5625 0.10547 0.003907 0.21484 0.007813 0.32031 0.007813 3.3086 0 6.0742-2.5938 6.2422-5.9375 1.0156-20.211 4.4648-31.578 7.5352-37.641v95.098c0 5.0234 4.0742 9.0977 9.0977 9.0977 5.0273 0.007813 9.1016-4.0664 9.1016-9.0898z"/>
 <path d="m499.59 466.85c4.5078 0 8.3711 0.38281 11.543 1.1211 2.7266-3.1797 4.3789-7.3047 4.3789-11.82 0-10.051-8.1445-18.195-18.199-18.195-10.047 0-18.195 8.1445-18.195 18.195 0 5.0312 2.043 9.582 5.3438 12.879 0.55469-0.21094 1.0039-0.34766 1.3125-0.43359 3.5234-1.1602 8.1719-1.7461 13.816-1.7461z"/>
 <path d="m459.22 521.93c-0.35547 3.1211 1.8867 5.9375 5.0078 6.293 0.21875 0.023438 0.4375 0.039063 0.65234 0.039063 2.8516 0 5.3086-2.1406 5.6445-5.043 1.6445-14.41 4.8633-23.832 8.1289-29.977-2.5859 14.891-5.5117 34.762-5.5117 48.402 0 2.207 3.9648 4.1602 9.0977 5.6016v35.531c0 4.082 3.3086 7.3906 7.3906 7.3906 4.082 0 7.3906-3.3086 7.3906-7.3906v-33.078c0.90234 0.050781 1.7656 0.082031 2.5586 0.082031s1.6562-0.027344 2.5586-0.082031v33.078c0 4.082 3.3086 7.3906 7.3906 7.3906s7.3945-3.3086 7.3945-7.3906v-35.531c5.1328-1.4414 9.0977-3.3945 9.0977-5.6016 0-13.645-2.9297-33.52-5.5156-48.41 3.2656 6.1406 6.4883 15.586 8.1289 29.984 0.33203 2.9023 2.793 5.043 5.6445 5.043 0.21484 0 0.43359-0.011719 0.65234-0.039063 3.1211-0.35547 5.3594-3.1719 5.0039-6.293-2.5-21.945-8.5977-34.68-14.664-42.031-5.4492-6.6367-10.785-8.6484-12.508-9.1172-2.5781-0.85938-6.6992-1.6602-13.188-1.6602s-10.613 0.80078-13.188 1.6602c-1.7227 0.46875-7.0586 2.4766-12.512 9.1172-6.0586 7.3516-12.156 20.09-14.656 42.031z"/>
 <path d="m267.49 286.55h260.44v12.566h-260.44z"/>
 <path d="m539.32 399.91c-1.1953-1.5508-1.9062-3.1133-2.3516-4.5859h-98.07c1.8398 1.7969 3.7266 4.0117 5.5312 6.7539 0.18359 0.27734 0.35156 0.57812 0.52734 0.86328h97.828c-1.3164-0.79688-2.5352-1.8438-3.4648-3.0312z"/>
 <path d="m356.56 395.32h-109.8v7.6211h103.7c1.8438-2.8945 3.8906-5.4492 6.1016-7.6211z"/>
 <path d="m273.8 359.24c0.046875 4.1758-1.5586 8.6484-4.2891 11.941-1.9961 2.4531-4.4609 4.4258-7.7266 6.1953-3.6445 1.918-7.3633 3.1133-10.852 3.9609v8.0469h113.95c4.207-2.0352 7.8984-2.543 10.273-2.5938l0.003906-0.003907c0.19922-0.011718 0.39062-0.023437 0.58984-0.023437h4.6641c-5.4922-4.0977-9.4844-10.094-11.008-17.004h-67.758v7.1328h-6.6875v-7.1328h-15.379v-8.9141h15.379v-7.5781h6.6875v7.5781l67.195 0.003906c1.3477-14.746 13.777-26.34 28.871-26.34s27.523 11.594 28.871 26.34h67.195v-7.5781h6.6875v7.5781h15.379v8.9141h-15.379v7.1328h-6.6875v-7.1328h-67.754c-1.5234 6.9102-5.5156 12.906-11.008 17.004h4.6641c0.21875 0 0.4375 0.011719 0.65625 0.027344 2.3047 0.046875 5.9883 0.55078 10.207 2.5898h105.8c0.34766-3.5625 1.9648-8.9922 3.1953-12.734l-10.43-7.1016v-53.051h15.605v-12.566h-294.01v12.566h15.605v25.957c1.8594 2.043 3.3398 4.0625 4.5391 6.1758 1.957 3.4766 2.9453 7.043 2.9492 10.609z"/>
 <path d="m393.91 269.02h7.5898v-43.867h23.621v-7.5938h-23.621v-19.824h-7.5898v19.824h-23.621v7.5938h23.621z"/>
 <path d="m570.61 366.24c9.3242-3.8398 32.324-9.4648 35.832-9.4648 0.21094 0 0.39062 0.007812 0.54688 0.027343 0.10547 0.011719 0.26562 0.027344 0.47656 0.050781 0.67187-1.4648 1.207-3.0195 1.5859-4.6523 3.0586-13.148-5.1172-26.289-18.262-29.352-13.152-3.0586-26.293 5.1172-29.355 18.266-2.2695 9.7461 1.6406 19.488 9.1758 25.125z"/>
 <g clip-path="url(#b)">
  <path d="m544.15 373.73c-2.8867 7.2031-4.3789 12.012-4.4609 16.715 0.019531 2.1953 0.35156 4.8047 2.3164 7.3555 0.96484 1.2383 2.3516 2.2773 3.7656 2.8555 1.418 0.59375 2.793 0.78125 3.9727 0.78125 2.5352-0.035156 4.3594-0.70703 6.0938-1.4375 2.9805-1.3242 5.707-3.168 8.4688-5.2188 1.1719-0.88281 2.3398-1.8086 3.4805-2.7461-4.8867 30.676-14.598 81.496-26.422 90.387 4.9727 7.7148 16.512 11.809 30.41 13.449v51.414c0 6.2812 5.0898 11.371 11.371 11.371 6.2773 0 11.371-5.0898 11.371-11.371v-50.68c1.2617-0.046874 2.5273-0.10937 3.793-0.18359v50.863c0 6.2812 5.0898 11.371 11.371 11.371 6.2773 0 11.371-5.0898 11.371-11.371v-53.465c13.398-2.3008 24.66-5.6836 30.055-9.1211 1.9453-21.098-5.0391-49.281-12.695-72.609 3.1289-2.8398 5.6953-5.5977 7.7383-8.3398 3.625-4.875 5.7344-9.9453 5.7422-15.137 0.011719-3.543-1.0547-6.9219-2.7227-9.6562-2.9609-4.8203-7.3047-7.8906-11.785-10.27-6.7578-3.5273-14.266-5.5117-20.238-6.7773-5.9531-1.2422-10.336-1.6836-10.512-1.7031-3.168-0.31641-34.16 7.8711-37.305 10.457-3.1445 2.5859-6.2812 6.1445-10.941 9.9648-0.53125 0.4375-1.0664 0.86719-1.5938 1.2812 0.30469-0.80859 0.64844-1.668 1.0273-2.5703 0.015626-0.039063 0.023438-0.078126 0.039063-0.11328l0.007813 0.003906c1.6562-4.0391 3.9766-9.0742 7.0703-15.215-0.86328-1.0156-1.6797-2.0781-2.3984-3.2305-2.5586-4.1172-3.9258-8.7422-4.0312-13.465-1.332 0.66797-2.4766 1.7383-3.2227 3.1562-5.0508 9.5938-8.6602 17.188-11.148 23.266 0.015625-0.011719 0.015625-0.011719 0.011719-0.011719zm90.281 10.566c1.0938 0.90234 1.793 1.7539 2.1719 2.4297 0.375 0.69531 0.5 1.1719 0.51563 1.8828 0.007812 1.0469-0.42969 3.0938-2.8281 6.3281-0.375 0.50781-0.81641 1.0508-1.2891 1.6055-2.3672-6.4102-4.6016-12.059-6.4609-16.574 3.2266 1.2734 6.0898 2.8086 7.8906 4.3281z"/>
 </g>
 <path d="m423.3 363.51c0-14.133-11.457-25.59-25.59-25.59-14.133 0-25.59 11.457-25.59 25.59 0 10.324 6.1133 19.211 14.918 23.258h21.344c8.8047-4.0469 14.918-12.934 14.918-23.258z"/>
 <path d="m429.43 392.63c-3.8125-1.9219-7.168-2.3828-9.2305-2.4219-0.17578-0.011719-0.34766-0.027344-0.52344-0.027344h-43.938c-0.17578 0-0.34766 0.015625-0.52344 0.027344-2.0625 0.039062-5.4219 0.5-9.2344 2.4258-6.1172 3.0312-12.711 9.668-17.324 21.426-4.668 11.805-7.8047 28.871-7.8242 54.641 0.003906 6.6602 0.21484 13.902 0.67969 21.785 0.28125 4.8359 4.2891 8.5664 9.0703 8.5664 0.17969 0 0.35937-0.003907 0.54297-0.015626 5.0156-0.29297 8.8438-4.5977 8.5508-9.6133-0.44531-7.5625-0.64453-14.453-0.64453-20.723-0.039062-27.535 3.9766-43.008 7.9219-51.082v170.59c0 7.7695 6.2969 14.059 14.059 14.059 7.7656 0 14.062-6.293 14.062-14.059v-102.66h5.2695v102.66c0 7.7695 6.2969 14.059 14.059 14.059 7.7656 0 14.062-6.293 14.062-14.059l0.003906-170.55c0.67578 1.3828 1.3555 2.9688 2.0273 4.8203 3.2031 8.8828 5.9023 23.461 5.8906 46.215 0 6.2695-0.19922 13.164-0.64062 20.727-0.29297 5.0156 3.5352 9.3203 8.5508 9.6133 0.17969 0.011719 0.35938 0.015625 0.53906 0.015625 4.7812 0 8.793-3.7344 9.0742-8.5664 0.46094-7.8828 0.67188-15.125 0.67188-21.785-0.046876-34.324-5.5273-53.324-13.004-64.746-3.7383-5.6719-8.1094-9.3086-12.148-11.32z"/>
 <g clip-path="url(#a)">
  <path d="m157.85 471.38c0.17969 0 0.35938-0.003906 0.53906-0.015625 5.0156-0.29297 8.8438-4.5977 8.5508-9.6133-0.44531-7.5625-0.64453-14.453-0.64453-20.727-0.039063-27.535 3.9766-43.008 7.918-51.082v170.59c0 7.7695 6.2969 14.059 14.059 14.059 7.7656 0 14.062-6.293 14.062-14.059v-102.66h5.2695v102.66c0 7.7695 6.2969 14.059 14.059 14.059 7.7656 0 14.062-6.293 14.062-14.059l0.003906-180.25c2.9414-0.25781 6.3477-0.65625 9.8477-1.2812 4.8555-0.90625 9.875-2.1367 14.586-4.6133 2.3477-1.2695 4.6953-2.8828 6.7227-5.375 2.0234-2.4375 3.543-6.0391 3.5039-9.7578-0.003907-3.2539-1.0195-6.2812-2.5039-8.9297-2.2656-3.9883-5.5664-7.4453-10.078-11.16-4.25-3.4688-9.6484-7.1172-16.488-11.121 0.39844 1.875 0.61328 3.8203 0.61328 5.8125 0 4.9727-1.3164 9.6406-3.6094 13.688 5.0859 3.293 8.6562 6.1016 10.871 8.2852 1.0547 1.0234 1.793 1.9023 2.2734 2.5586-0.80859 0.42188-1.9648 0.92578-3.3438 1.332-4.0078 1.2695-9.6055 2.0703-14.008 2.4414-2.207 0.19141-4.1367 0.29297-5.4922 0.34375-0.48438 0.019531-0.89062 0.03125-1.2109 0.039062-0.16016-0.007812-0.3125-0.023437-0.47656-0.023437l-43.934-0.011719c-0.1875 0-0.36719 0.015625-0.55078 0.027344-2.0664 0.042969-5.4102 0.50781-9.207 2.4219-6.1172 3.0312-12.711 9.668-17.324 21.426-4.6719 11.809-7.8125 28.875-7.8242 54.645 0 6.6602 0.21094 13.906 0.67578 21.789 0.28125 4.8359 4.293 8.5664 9.0781 8.5664z"/>
 </g>
 <path d="m239.66 333.85c0 14.133-11.457 25.59-25.59 25.59-14.133 0-25.59-11.457-25.59-25.59 0-14.133 11.457-25.59 25.59-25.59 14.133 0 25.59 11.457 25.59 25.59"/>
</svg>