<?xml version="1.0" encoding="UTF-8"?>
<!-- The Best Svg Icon site in the world: iconSvg.co, Visit us! https://iconsvg.co -->
<svg width="800px" height="800px" version="1.1" viewBox="144 144 512 512" xmlns="http://www.w3.org/2000/svg">
 <defs>
  <clipPath id="a">
   <path d="m148.09 516h503.81v14h-503.81z"/>
  </clipPath>
 </defs>
 <path d="m182.69 335.36h434.62v20.969h-434.62z"/>
 <g clip-path="url(#a)">
  <path d="m148.09 516.89h503.81v12.715h-503.81z"/>
 </g>
 <path d="m154.68 385.35h26.035v88.531l-25.664 17.484v15.621h489.9v-15.621l-25.668-17.484v-88.531h26.043v-20.973h-490.64z"/>
 <path d="m282.83 317.01c-0.050781 0-0.16016-0.003907-0.32422 0.003906l0.18359 4.5898h0.14062c31.711-0.0625 65.883-17.93 77.133-24.309 5.2852 4.375 14.152 4.082 21.227-1.1211 5.2344-3.8477 4.8086-6.9531 2.5742-10.43-2.9336 3.0859-9.8906 9.3125-17.164 7.9258 6.707-3.2734 11.672-8.5117 14.32-11.758-0.57812-0.73828-1.1758-1.5-1.7617-2.3008-3.6953-5.0273-5.9648-9.9492-10.566-9.1289-1.2539 3.8711-3.0898 11.266-2.0508 19.035-2.8203-5.4609-2.6602-12.523-2.1367-17.09-0.14844 0.10156-0.28906 0.18359-0.44141 0.29687-7.4688 5.4883-10.309 14.508-6.9141 20.953-0.80859 0.45312-1.7109 0.95312-2.7227 1.5-13.473 7.3086-44.102 21.871-71.496 21.832z"/>
 <path d="m356.98 323.49c-6.2969-2.7383-22.062-7.0078-15.836-6.9336 5.8281 0.066406 14.008 3.8242 17.324 5.4727-1.7148-2.4453-9.1055-11.652-22.352-10.258-14.73 1.5508 2.8438 19.172 20.863 11.719z"/>
 <path d="m319.58 286.53c-18.152 7.1289-18.586 32.016-6.8945 22.914 10.5-8.1797 9.4453-19.938 8.9844-22.898-1.2461 3.4844-4.5312 11.867-8.6836 15.961-4.4375 4.3789 3.957-9.6367 6.5938-15.977z"/>
 <path d="m372.11 317.01 0.18359 4.5898h0.14062c31.711-0.0625 65.887-17.93 77.133-24.309 5.2852 4.375 14.152 4.082 21.227-1.1211 5.2344-3.8477 4.8086-6.9531 2.5742-10.43-2.9336 3.0859-9.8906 9.3125-17.164 7.9258 6.707-3.2734 11.672-8.5117 14.32-11.758-0.57812-0.73828-1.1758-1.5-1.7617-2.3008-3.6953-5.0273-5.9648-9.9492-10.566-9.1289-1.2539 3.8711-3.0898 11.266-2.0508 19.035-2.8203-5.4609-2.6602-12.523-2.1367-17.09-0.14844 0.10156-0.28906 0.18359-0.44141 0.29688-7.4688 5.4883-10.309 14.508-6.9141 20.953-0.80859 0.45312-1.7109 0.95312-2.7227 1.5-13.461 7.3086-44.094 21.871-71.488 21.832-0.058593 0.003907-0.16406 0-0.33203 0.003907z"/>
 <path d="m430.76 316.55c5.8281 0.066406 14.008 3.8242 17.324 5.4727-1.7148-2.4453-9.1055-11.652-22.352-10.258-14.734 1.5547 2.8398 19.176 20.859 11.723-6.293-2.7422-22.059-7.0117-15.832-6.9375z"/>
 <path d="m409.19 286.53c-18.152 7.1289-18.586 32.016-6.8945 22.914 10.5-8.1797 9.4453-19.938 8.9844-22.898-1.2461 3.4844-4.5312 11.867-8.6836 15.961-4.4414 4.3789 3.957-9.6367 6.5938-15.977z"/>
</svg>