<?xml version="1.0" encoding="UTF-8"?>
<svg id="Layer_2" data-name="Layer 2" xmlns="http://www.w3.org/2000/svg" xmlns:xlink="http://www.w3.org/1999/xlink" viewBox="0 0 268.3 194.81">
  <defs>
    <style>
      .cls-1 {
        fill: url(#linear-gradient-132);
      }

      .cls-2 {
        fill: url(#linear-gradient-118);
      }

      .cls-3 {
        fill: url(#linear-gradient-162);
      }

      .cls-4 {
        fill: url(#linear-gradient-61);
      }

      .cls-5 {
        fill: url(#linear-gradient-136);
      }

      .cls-6 {
        fill: url(#linear-gradient-15);
      }

      .cls-7 {
        fill: url(#linear-gradient-13);
      }

      .cls-8 {
        fill: url(#linear-gradient-107);
      }

      .cls-9 {
        fill: url(#linear-gradient-28);
      }

      .cls-10 {
        fill: url(#linear-gradient-158);
      }

      .cls-11 {
        fill: url(#linear-gradient-65);
      }

      .cls-12 {
        fill: url(#linear-gradient-145);
      }

      .cls-13 {
        fill: url(#linear-gradient-69);
      }

      .cls-14 {
        fill: url(#linear-gradient-53);
      }

      .cls-15 {
        fill: url(#linear-gradient-42);
      }

      .cls-16 {
        fill: url(#linear-gradient-46);
      }

      .cls-17 {
        fill: url(#linear-gradient-155);
      }

      .cls-18 {
        fill: url(#linear-gradient-142);
      }

      .cls-19 {
        fill: url(#linear-gradient-70);
      }

      .cls-20 {
        fill: url(#linear-gradient-60);
      }

      .cls-21 {
        fill: url(#linear-gradient-93);
      }

      .cls-22 {
        fill: url(#linear-gradient-95);
      }

      .cls-23 {
        fill: url(#linear-gradient-2);
      }

      .cls-24 {
        fill: url(#linear-gradient-100);
      }

      .cls-25 {
        fill: url(#linear-gradient-150);
      }

      .cls-26 {
        fill: url(#linear-gradient-87);
      }

      .cls-27 {
        fill: url(#linear-gradient-64);
      }

      .cls-28 {
        fill: url(#linear-gradient-56);
      }

      .cls-29 {
        fill: url(#linear-gradient-43);
      }

      .cls-30 {
        fill: url(#linear-gradient-25);
      }

      .cls-31 {
        fill: url(#linear-gradient-82);
      }

      .cls-32 {
        fill: url(#linear-gradient-138);
      }

      .cls-33 {
        fill: url(#linear-gradient-10);
      }

      .cls-34 {
        fill: url(#linear-gradient-12);
      }

      .cls-35 {
        fill: url(#linear-gradient-40);
      }

      .cls-36 {
        fill: url(#linear-gradient-27);
      }

      .cls-37 {
        fill: url(#linear-gradient-68);
      }

      .cls-38 {
        fill: url(#linear-gradient-37);
      }

      .cls-39 {
        fill: url(#linear-gradient-159);
      }

      .cls-40 {
        fill: url(#linear-gradient-75);
      }

      .cls-41 {
        fill: url(#linear-gradient-55);
      }

      .cls-42 {
        fill: url(#linear-gradient-116);
      }

      .cls-43 {
        fill: url(#linear-gradient-39);
      }

      .cls-44 {
        fill: url(#linear-gradient-160);
      }

      .cls-45 {
        fill: url(#linear-gradient-89);
      }

      .cls-46 {
        fill: url(#linear-gradient-52);
      }

      .cls-47 {
        fill: url(#linear-gradient-113);
      }

      .cls-48 {
        fill: url(#linear-gradient-122);
      }

      .cls-49 {
        fill: url(#linear-gradient-58);
      }

      .cls-50 {
        fill: url(#linear-gradient-152);
      }

      .cls-51 {
        fill: url(#linear-gradient-47);
      }

      .cls-52 {
        fill: url(#linear-gradient-26);
      }

      .cls-53 {
        fill: url(#linear-gradient-74);
      }

      .cls-54 {
        fill: url(#linear-gradient-146);
      }

      .cls-55 {
        fill: url(#linear-gradient-97);
      }

      .cls-56 {
        fill: url(#linear-gradient-72);
      }

      .cls-57 {
        fill: url(#linear-gradient-157);
      }

      .cls-58 {
        fill: url(#linear-gradient-4);
      }

      .cls-59 {
        fill: url(#linear-gradient-35);
      }

      .cls-60 {
        fill: url(#linear-gradient-30);
      }

      .cls-61 {
        fill: url(#linear-gradient-125);
      }

      .cls-62 {
        fill: url(#linear-gradient-161);
      }

      .cls-63 {
        fill: url(#linear-gradient-76);
      }

      .cls-64 {
        fill: url(#linear-gradient-143);
      }

      .cls-65 {
        fill: url(#linear-gradient-109);
      }

      .cls-66 {
        fill: url(#linear-gradient-73);
      }

      .cls-67 {
        fill: url(#linear-gradient-71);
      }

      .cls-68 {
        fill: url(#linear-gradient-44);
      }

      .cls-69 {
        fill: url(#linear-gradient-144);
      }

      .cls-70 {
        fill: url(#linear-gradient-96);
      }

      .cls-71 {
        fill: url(#linear-gradient-49);
      }

      .cls-72 {
        fill: url(#linear-gradient-3);
      }

      .cls-73 {
        fill: url(#linear-gradient-34);
      }

      .cls-74 {
        fill: url(#linear-gradient-5);
      }

      .cls-75 {
        fill: url(#linear-gradient-38);
      }

      .cls-76 {
        fill: url(#linear-gradient-91);
      }

      .cls-77 {
        fill: url(#linear-gradient-149);
      }

      .cls-78 {
        fill: url(#linear-gradient-22);
      }

      .cls-79 {
        fill: url(#linear-gradient-24);
      }

      .cls-80 {
        fill: url(#linear-gradient-133);
      }

      .cls-81 {
        fill: url(#linear-gradient-94);
      }

      .cls-82 {
        fill: url(#linear-gradient-54);
      }

      .cls-83 {
        fill: url(#linear-gradient-147);
      }

      .cls-84 {
        fill: url(#linear-gradient-92);
      }

      .cls-85 {
        fill: url(#linear-gradient-90);
      }

      .cls-86 {
        fill: url(#linear-gradient-33);
      }

      .cls-87 {
        fill: url(#linear-gradient-79);
      }

      .cls-88 {
        fill: url(#linear-gradient-78);
      }

      .cls-89 {
        fill: url(#linear-gradient-51);
      }

      .cls-90 {
        fill: url(#linear-gradient-8);
      }

      .cls-91 {
        fill: url(#linear-gradient-66);
      }

      .cls-92 {
        fill: url(#linear-gradient-57);
      }

      .cls-93 {
        fill: url(#linear-gradient-77);
      }

      .cls-94 {
        fill: url(#linear-gradient-131);
      }

      .cls-95 {
        fill: url(#linear-gradient-129);
      }

      .cls-96 {
        fill: url(#linear-gradient-103);
      }

      .cls-97 {
        fill: url(#linear-gradient-135);
      }

      .cls-98 {
        fill: url(#linear-gradient-121);
      }

      .cls-99 {
        fill: url(#linear-gradient-110);
      }

      .cls-100 {
        fill: url(#linear-gradient-88);
      }

      .cls-101 {
        fill: url(#linear-gradient-124);
      }

      .cls-102 {
        fill: url(#linear-gradient-128);
      }

      .cls-103 {
        fill: url(#linear-gradient-14);
      }

      .cls-104 {
        fill: url(#linear-gradient-62);
      }

      .cls-105 {
        fill: url(#linear-gradient-156);
      }

      .cls-106 {
        fill: url(#linear-gradient-29);
      }

      .cls-107 {
        fill: url(#linear-gradient-20);
      }

      .cls-108 {
        fill: url(#linear-gradient-106);
      }

      .cls-109 {
        fill: url(#linear-gradient-67);
      }

      .cls-110 {
        fill: url(#linear-gradient-139);
      }

      .cls-111 {
        fill: url(#linear-gradient-148);
      }

      .cls-112 {
        fill: url(#linear-gradient-17);
      }

      .cls-113 {
        fill: url(#linear-gradient-141);
      }

      .cls-114 {
        fill: url(#linear-gradient-50);
      }

      .cls-115 {
        fill: url(#linear-gradient-7);
      }

      .cls-116 {
        fill: url(#linear-gradient-134);
      }

      .cls-117 {
        fill: url(#linear-gradient-9);
      }

      .cls-118 {
        fill: url(#linear-gradient-104);
      }

      .cls-119 {
        fill: url(#linear-gradient-59);
      }

      .cls-120 {
        fill: url(#linear-gradient-11);
      }

      .cls-121 {
        fill: url(#linear-gradient-120);
      }

      .cls-122 {
        fill: url(#linear-gradient-108);
      }

      .cls-123 {
        fill: url(#linear-gradient-19);
      }

      .cls-124 {
        fill: url(#linear-gradient-101);
      }

      .cls-125 {
        fill: url(#linear-gradient-80);
      }

      .cls-126 {
        fill: url(#linear-gradient-6);
      }

      .cls-127 {
        fill: url(#linear-gradient-83);
      }

      .cls-128 {
        fill: url(#linear-gradient-112);
      }

      .cls-129 {
        fill: url(#linear-gradient-154);
      }

      .cls-130 {
        fill: url(#linear-gradient-105);
      }

      .cls-131 {
        fill: url(#linear-gradient-137);
      }

      .cls-132 {
        fill: url(#linear-gradient-36);
      }

      .cls-133 {
        fill: url(#linear-gradient-21);
      }

      .cls-134 {
        fill: url(#linear-gradient-119);
      }

      .cls-135 {
        fill: url(#linear-gradient-45);
      }

      .cls-136 {
        fill: url(#linear-gradient-127);
      }

      .cls-137 {
        fill: url(#linear-gradient-85);
      }

      .cls-138 {
        fill: url(#linear-gradient-98);
      }

      .cls-139 {
        fill: url(#linear-gradient-81);
      }

      .cls-140 {
        fill: url(#linear-gradient-151);
      }

      .cls-141 {
        fill: url(#linear-gradient-84);
      }

      .cls-142 {
        fill: url(#linear-gradient-114);
      }

      .cls-143 {
        fill: url(#linear-gradient-140);
      }

      .cls-144 {
        fill: url(#linear-gradient-153);
      }

      .cls-145 {
        fill: url(#linear-gradient-117);
      }

      .cls-146 {
        fill: url(#linear-gradient-48);
      }

      .cls-147 {
        fill: url(#linear-gradient-102);
      }

      .cls-148 {
        fill: url(#linear-gradient-32);
      }

      .cls-149 {
        fill: url(#linear-gradient-86);
      }

      .cls-150 {
        fill: url(#linear-gradient-41);
      }

      .cls-151 {
        fill: url(#linear-gradient-130);
      }

      .cls-152 {
        fill: url(#linear-gradient-16);
      }

      .cls-153 {
        fill: url(#linear-gradient-111);
      }

      .cls-154 {
        fill: url(#linear-gradient);
      }

      .cls-155 {
        fill: url(#linear-gradient-23);
      }

      .cls-156 {
        fill: url(#linear-gradient-31);
      }

      .cls-157 {
        fill: url(#linear-gradient-63);
      }

      .cls-158 {
        fill: url(#linear-gradient-115);
      }

      .cls-159 {
        fill: url(#linear-gradient-126);
      }

      .cls-160 {
        fill: #cdb270;
      }

      .cls-161 {
        fill: url(#linear-gradient-99);
      }

      .cls-162 {
        fill: url(#linear-gradient-18);
      }

      .cls-163 {
        fill: url(#linear-gradient-123);
      }
    </style>
    <linearGradient id="linear-gradient" x1="-16.95" y1="-51.3" x2="38.86" y2="-51.3" gradientTransform="translate(86.51 132.53) rotate(-14.21) scale(1 -1)" gradientUnits="userSpaceOnUse">
      <stop offset="0" stop-color="#cc9968"/>
      <stop offset=".21" stop-color="#d3a571"/>
      <stop offset=".59" stop-color="#e5c58a"/>
      <stop offset=".66" stop-color="#eacd90"/>
      <stop offset="1" stop-color="#d0b973"/>
    </linearGradient>
    <linearGradient id="linear-gradient-2" x1=".16" y1="-67.77" x2="41.68" y2="-53.1" xlink:href="#linear-gradient"/>
    <linearGradient id="linear-gradient-3" x1="-64.13" y1="28.97" x2="-44.72" y2="27.28" xlink:href="#linear-gradient"/>
    <linearGradient id="linear-gradient-4" x1="-20.8" y1="39.56" x2="-41.9" y2="6.39" xlink:href="#linear-gradient"/>
    <linearGradient id="linear-gradient-5" x1="-27.16" y1="48.03" x2="-46.23" y2="37.19" xlink:href="#linear-gradient"/>
    <linearGradient id="linear-gradient-6" x1="-15.12" y1="67.9" x2="-44.68" y2="61.7" xlink:href="#linear-gradient"/>
    <linearGradient id="linear-gradient-7" x1="-72.44" y1="59.53" x2="-43.44" y2="53.1" xlink:href="#linear-gradient"/>
    <linearGradient id="linear-gradient-8" x1="-55.13" y1="87.73" x2="-36.51" y2="75.77" xlink:href="#linear-gradient"/>
    <linearGradient id="linear-gradient-9" x1="-21.36" y1="132.27" x2="-8.72" y2="114.78" xlink:href="#linear-gradient"/>
    <linearGradient id="linear-gradient-10" x1="7.1" y1="99.59" x2="-26.07" y2="102.86" xlink:href="#linear-gradient"/>
    <linearGradient id="linear-gradient-11" x1="-44.25" y1="118.21" x2="-23.37" y2="93.16" xlink:href="#linear-gradient"/>
    <linearGradient id="linear-gradient-12" x1="-13.65" y1="85.13" x2="-36.22" y2="84.34" xlink:href="#linear-gradient"/>
    <linearGradient id="linear-gradient-13" x1="21.61" y1="130.02" x2="-8.4" y2="114.79" xlink:href="#linear-gradient"/>
    <linearGradient id="linear-gradient-14" x1="8.01" y1="-15.49" x2="6.99" y2="-28.61" xlink:href="#linear-gradient"/>
    <linearGradient id="linear-gradient-15" x1="-.56" y1="-21.43" x2="6.26" y2="-21.43" xlink:href="#linear-gradient"/>
    <linearGradient id="linear-gradient-16" x1="13.92" y1="-27.36" x2="14.88" y2="-41.5" xlink:href="#linear-gradient"/>
    <linearGradient id="linear-gradient-17" x1="2.78" y1="-34.65" x2="11.5" y2="-34.65" xlink:href="#linear-gradient"/>
    <linearGradient id="linear-gradient-18" x1="20.94" y1="-35.19" x2="25.21" y2="-49.58" xlink:href="#linear-gradient"/>
    <linearGradient id="linear-gradient-19" x1="11.01" y1="-43.98" x2="20.57" y2="-46.47" xlink:href="#linear-gradient"/>
    <linearGradient id="linear-gradient-20" x1="10.45" y1="-4.96" x2="20.49" y2="-52.01" xlink:href="#linear-gradient"/>
    <linearGradient id="linear-gradient-21" x1="28.41" y1="-43.15" x2="34.21" y2="-54.17" xlink:href="#linear-gradient"/>
    <linearGradient id="linear-gradient-22" x1="1.29" y1="-6.53" x2="5.34" y2="-6.53" xlink:href="#linear-gradient"/>
    <linearGradient id="linear-gradient-23" x1=".05" y1="-31.02" x2="4.1" y2="-31.02" xlink:href="#linear-gradient"/>
    <linearGradient id="linear-gradient-24" x1="6.82" y1="-14.99" x2="10.87" y2="-14.99" xlink:href="#linear-gradient"/>
    <linearGradient id="linear-gradient-25" x1="19.34" y1="-34.62" x2="23.4" y2="-34.62" xlink:href="#linear-gradient"/>
    <linearGradient id="linear-gradient-26" x1="-3.22" y1="-15.79" x2="1.06" y2="-15.79" xlink:href="#linear-gradient"/>
    <linearGradient id="linear-gradient-27" x1="12.01" y1="-26.39" x2="16.29" y2="-26.39" xlink:href="#linear-gradient"/>
    <linearGradient id="linear-gradient-28" x1="27.13" y1="-41.62" x2="31.41" y2="-41.62" xlink:href="#linear-gradient"/>
    <linearGradient id="linear-gradient-29" x1="8.74" y1="-42.86" x2="13.01" y2="-42.86" xlink:href="#linear-gradient"/>
    <linearGradient id="linear-gradient-30" x1="1.19" y1="110.85" x2="-19.63" y2="103.49" xlink:href="#linear-gradient"/>
    <linearGradient id="linear-gradient-31" x1=".2" y1="111.08" x2="1.85" y2="111.08" xlink:href="#linear-gradient"/>
    <linearGradient id="linear-gradient-32" x1="-5.09" y1="110.3" x2="-2.93" y2="110.3" xlink:href="#linear-gradient"/>
    <linearGradient id="linear-gradient-33" x1="-10.68" y1="108.65" x2="-8.3" y2="108.65" xlink:href="#linear-gradient"/>
    <linearGradient id="linear-gradient-34" x1="-23.05" y1="126.15" x2="-28.47" y2="92.98" xlink:href="#linear-gradient"/>
    <linearGradient id="linear-gradient-35" x1="-24.08" y1="125.92" x2="-22.43" y2="125.92" xlink:href="#linear-gradient"/>
    <linearGradient id="linear-gradient-36" x1="-23.89" y1="120.44" x2="-21.73" y2="120.44" xlink:href="#linear-gradient"/>
    <linearGradient id="linear-gradient-37" x1="-24.19" y1="115.22" x2="-21.8" y2="115.22" xlink:href="#linear-gradient"/>
    <linearGradient id="linear-gradient-38" x1="-25.16" y1="109.42" x2="-22.49" y2="109.42" xlink:href="#linear-gradient"/>
    <linearGradient id="linear-gradient-39" x1="-26.82" y1="103.36" x2="-24.15" y2="103.36" xlink:href="#linear-gradient"/>
    <linearGradient id="linear-gradient-40" x1="-38.04" y1="32.78" x2="-42.1" y2="10.19" xlink:href="#linear-gradient"/>
    <linearGradient id="linear-gradient-41" x1="-38.34" y1="32.08" x2="-36.69" y2="32.08" xlink:href="#linear-gradient"/>
    <linearGradient id="linear-gradient-42" x1="-40.44" y1="27.88" x2="-38.28" y2="27.88" xlink:href="#linear-gradient"/>
    <linearGradient id="linear-gradient-43" x1="-42.1" y1="22.22" x2="-39.72" y2="22.22" xlink:href="#linear-gradient"/>
    <linearGradient id="linear-gradient-44" x1="-20.91" y1="-20.47" x2="-13.76" y2="-20.47" xlink:href="#linear-gradient"/>
    <linearGradient id="linear-gradient-45" x1="-21.36" y1="-9.89" x2="-19.71" y2="-9.89" xlink:href="#linear-gradient"/>
    <linearGradient id="linear-gradient-46" x1="-21.66" y1="-14.55" x2="-19.5" y2="-14.55" xlink:href="#linear-gradient"/>
    <linearGradient id="linear-gradient-47" x1="-21.12" y1="-19.75" x2="-18.73" y2="-19.75" xlink:href="#linear-gradient"/>
    <linearGradient id="linear-gradient-48" x1="-30.54" y1="77.55" x2="-40.94" y2="66.89" xlink:href="#linear-gradient"/>
    <linearGradient id="linear-gradient-49" x1="-31.29" y1="77.2" x2="-29.64" y2="77.2" xlink:href="#linear-gradient"/>
    <linearGradient id="linear-gradient-50" x1="-34.83" y1="74.78" x2="-32.67" y2="74.78" xlink:href="#linear-gradient"/>
    <linearGradient id="linear-gradient-51" x1="-38.29" y1="71.64" x2="-35.91" y2="71.64" xlink:href="#linear-gradient"/>
    <linearGradient id="linear-gradient-52" x1="-57.07" y1="64.39" x2="-44.65" y2="64.39" xlink:href="#linear-gradient"/>
    <linearGradient id="linear-gradient-53" x1="-57.7" y1="80.68" x2="-56.05" y2="80.68" xlink:href="#linear-gradient"/>
    <linearGradient id="linear-gradient-54" x1="-55.34" y1="76.62" x2="-53.18" y2="76.62" xlink:href="#linear-gradient"/>
    <linearGradient id="linear-gradient-55" x1="-53.1" y1="72.14" x2="-50.72" y2="72.14" xlink:href="#linear-gradient"/>
    <linearGradient id="linear-gradient-56" x1="-51.03" y1="67.28" x2="-48.36" y2="67.28" xlink:href="#linear-gradient"/>
    <linearGradient id="linear-gradient-57" x1="-49.13" y1="62.07" x2="-46.46" y2="62.07" xlink:href="#linear-gradient"/>
    <linearGradient id="linear-gradient-58" x1="-61.88" y1="25.52" x2="-38.44" y2="5.55" xlink:href="#linear-gradient"/>
    <linearGradient id="linear-gradient-59" x1="-63.22" y1="24.47" x2="-61.57" y2="24.47" xlink:href="#linear-gradient"/>
    <linearGradient id="linear-gradient-60" x1="-59.06" y1="22.46" x2="-56.9" y2="22.46" xlink:href="#linear-gradient"/>
    <linearGradient id="linear-gradient-61" x1="-54.88" y1="19.64" x2="-52.5" y2="19.64" xlink:href="#linear-gradient"/>
    <linearGradient id="linear-gradient-62" x1="-50.94" y1="16.6" x2="-48.27" y2="16.6" xlink:href="#linear-gradient"/>
    <linearGradient id="linear-gradient-63" x1="-46.93" y1="12.83" x2="-44.26" y2="12.83" xlink:href="#linear-gradient"/>
    <linearGradient id="linear-gradient-64" x1="-3.49" y1="-2.93" x2="-10.94" y2="-32.38" xlink:href="#linear-gradient"/>
    <linearGradient id="linear-gradient-65" x1="21.49" y1="130.25" x2="-8.52" y2="115.02" xlink:href="#linear-gradient"/>
    <linearGradient id="linear-gradient-66" x1="-23.06" y1="131.04" x2="-10.43" y2="113.55" xlink:href="#linear-gradient"/>
    <linearGradient id="linear-gradient-67" x1="6.96" y1="98.16" x2="-26.21" y2="101.43" xlink:href="#linear-gradient"/>
    <linearGradient id="linear-gradient-68" x1="-46.98" y1="115.93" x2="-26.11" y2="90.88" xlink:href="#linear-gradient"/>
    <linearGradient id="linear-gradient-69" x1="-13.62" y1="84.15" x2="-36.18" y2="83.36" xlink:href="#linear-gradient"/>
    <linearGradient id="linear-gradient-70" x1="-59.41" y1="81.07" x2="-40.79" y2="69.11" xlink:href="#linear-gradient"/>
    <linearGradient id="linear-gradient-71" x1="-15.1" y1="67.78" x2="-44.66" y2="61.58" xlink:href="#linear-gradient"/>
    <linearGradient id="linear-gradient-72" x1="-73.09" y1="56.59" x2="-44.09" y2="50.16" xlink:href="#linear-gradient"/>
    <linearGradient id="linear-gradient-73" x1="-26.72" y1="47.25" x2="-45.79" y2="36.42" xlink:href="#linear-gradient"/>
    <linearGradient id="linear-gradient-74" x1="-64.22" y1="27.96" x2="-44.81" y2="26.26" xlink:href="#linear-gradient"/>
    <linearGradient id="linear-gradient-75" x1="-20.95" y1="39.65" x2="-42.05" y2="6.48" xlink:href="#linear-gradient"/>
    <linearGradient id="linear-gradient-76" x1="-66.32" y1="4.53" x2="-39.85" y2="6.28" xlink:href="#linear-gradient"/>
    <linearGradient id="linear-gradient-77" x1="-52.61" y1="-17.35" x2="-31.32" y2="-10.62" xlink:href="#linear-gradient"/>
    <linearGradient id="linear-gradient-78" x1="-60.38" y1="-27.59" x2="-23.38" y2="-22.85" xlink:href="#linear-gradient"/>
    <linearGradient id="linear-gradient-79" x1="-33.53" y1="-49.96" x2="-10.18" y2="-35.74" xlink:href="#linear-gradient"/>
    <linearGradient id="linear-gradient-80" x1="-14.29" y1="8.72" x2="-28.73" y2="-12.5" xlink:href="#linear-gradient"/>
    <linearGradient id="linear-gradient-81" x1="-1.25" y1="117.01" x2="-1.25" y2="-55.88" xlink:href="#linear-gradient"/>
    <linearGradient id="linear-gradient-82" x1="-245.47" y1="24.29" x2="-189.66" y2="24.29" gradientTransform="translate(-56.28 154.41) rotate(-167.31)" xlink:href="#linear-gradient"/>
    <linearGradient id="linear-gradient-83" x1="-228.36" y1="7.81" x2="-186.84" y2="22.48" gradientTransform="translate(-56.28 154.41) rotate(-167.31)" xlink:href="#linear-gradient"/>
    <linearGradient id="linear-gradient-84" x1="-1123.98" y1="104.57" x2="-1104.58" y2="102.88" gradientTransform="translate(-867.31 -28.18) rotate(-167.31)" xlink:href="#linear-gradient"/>
    <linearGradient id="linear-gradient-85" x1="-249.32" y1="115.14" x2="-270.42" y2="81.97" gradientTransform="translate(-56.28 154.41) rotate(-167.31)" xlink:href="#linear-gradient"/>
    <linearGradient id="linear-gradient-86" x1="-255.68" y1="123.6" x2="-274.75" y2="112.77" gradientTransform="translate(-56.28 154.41) rotate(-167.31)" xlink:href="#linear-gradient"/>
    <linearGradient id="linear-gradient-87" x1="-243.63" y1="143.46" x2="-273.19" y2="137.25" gradientTransform="translate(-56.28 154.41) rotate(-167.31)" xlink:href="#linear-gradient"/>
    <linearGradient id="linear-gradient-88" x1="-300.96" y1="135.1" x2="-271.96" y2="128.67" gradientTransform="translate(-56.28 154.41) rotate(-167.31)" xlink:href="#linear-gradient"/>
    <linearGradient id="linear-gradient-89" x1="-1114.98" y1="163.32" x2="-1096.36" y2="151.36" gradientTransform="translate(-867.31 -28.18) rotate(-167.31)" xlink:href="#linear-gradient"/>
    <linearGradient id="linear-gradient-90" x1="-1081.19" y1="207.86" x2="-1068.56" y2="190.37" gradientTransform="translate(-867.31 -28.18) rotate(-167.31)" xlink:href="#linear-gradient"/>
    <linearGradient id="linear-gradient-91" x1="-1052.74" y1="175.2" x2="-1085.91" y2="178.47" gradientTransform="translate(-867.31 -28.18) rotate(-167.31)" xlink:href="#linear-gradient"/>
    <linearGradient id="linear-gradient-92" x1="-1104.08" y1="193.8" x2="-1083.21" y2="168.75" gradientTransform="translate(-867.31 -28.18) rotate(-167.31)" xlink:href="#linear-gradient"/>
    <linearGradient id="linear-gradient-93" x1="-1073.51" y1="160.74" x2="-1096.07" y2="159.95" gradientTransform="translate(-867.31 -28.18) rotate(-167.31)" xlink:href="#linear-gradient"/>
    <linearGradient id="linear-gradient-94" x1="-206.9" y1="205.59" x2="-236.91" y2="190.35" gradientTransform="translate(-56.28 154.41) rotate(-167.31)" xlink:href="#linear-gradient"/>
    <linearGradient id="linear-gradient-95" x1="-1051.85" y1="60.09" x2="-1052.87" y2="46.96" gradientTransform="translate(-867.31 -28.18) rotate(-167.31)" xlink:href="#linear-gradient"/>
    <linearGradient id="linear-gradient-96" x1="-1060.42" y1="54.16" x2="-1053.58" y2="54.16" gradientTransform="translate(-867.31 -28.18) rotate(-167.31)" xlink:href="#linear-gradient"/>
    <linearGradient id="linear-gradient-97" x1="-1045.92" y1="48.21" x2="-1044.97" y2="34.07" gradientTransform="translate(-867.31 -28.18) rotate(-167.31)" xlink:href="#linear-gradient"/>
    <linearGradient id="linear-gradient-98" x1="-1057.07" y1="40.96" x2="-1048.35" y2="40.96" gradientTransform="translate(-867.31 -28.18) rotate(-167.31)" xlink:href="#linear-gradient"/>
    <linearGradient id="linear-gradient-99" x1="-1038.9" y1="40.39" x2="-1034.63" y2="25.99" gradientTransform="translate(-867.31 -28.18) rotate(-167.31)" xlink:href="#linear-gradient"/>
    <linearGradient id="linear-gradient-100" x1="-1048.83" y1="31.62" x2="-1039.28" y2="29.14" gradientTransform="translate(-867.31 -28.18) rotate(-167.31)" xlink:href="#linear-gradient"/>
    <linearGradient id="linear-gradient-101" x1="-1049.39" y1="70.62" x2="-1039.35" y2="23.57" gradientTransform="translate(-867.31 -28.18) rotate(-167.31)" xlink:href="#linear-gradient"/>
    <linearGradient id="linear-gradient-102" x1="-1031.42" y1="32.43" x2="-1025.62" y2="21.41" gradientTransform="translate(-867.31 -28.18) rotate(-167.31)" xlink:href="#linear-gradient"/>
    <linearGradient id="linear-gradient-103" x1="-1058.57" y1="69.08" x2="-1054.51" y2="69.08" gradientTransform="translate(-867.31 -28.18) rotate(-167.31)" xlink:href="#linear-gradient"/>
    <linearGradient id="linear-gradient-104" x1="-1059.81" y1="44.59" x2="-1055.76" y2="44.59" gradientTransform="translate(-867.31 -28.18) rotate(-167.31)" xlink:href="#linear-gradient"/>
    <linearGradient id="linear-gradient-105" x1="-1053.04" y1="60.61" x2="-1048.99" y2="60.61" gradientTransform="translate(-867.31 -28.18) rotate(-167.31)" xlink:href="#linear-gradient"/>
    <linearGradient id="linear-gradient-106" x1="-1040.51" y1="40.98" x2="-1036.46" y2="40.98" gradientTransform="translate(-867.31 -28.18) rotate(-167.31)" xlink:href="#linear-gradient"/>
    <linearGradient id="linear-gradient-107" x1="-1063.08" y1="59.83" x2="-1058.8" y2="59.83" gradientTransform="translate(-867.31 -28.18) rotate(-167.31)" xlink:href="#linear-gradient"/>
    <linearGradient id="linear-gradient-108" x1="-1047.85" y1="49.22" x2="-1043.57" y2="49.22" gradientTransform="translate(-867.31 -28.18) rotate(-167.31)" xlink:href="#linear-gradient"/>
    <linearGradient id="linear-gradient-109" x1="-1032.73" y1="33.99" x2="-1028.45" y2="33.99" gradientTransform="translate(-867.31 -28.18) rotate(-167.31)" xlink:href="#linear-gradient"/>
    <linearGradient id="linear-gradient-110" x1="-1051.12" y1="32.75" x2="-1046.84" y2="32.75" gradientTransform="translate(-867.31 -28.18) rotate(-167.31)" xlink:href="#linear-gradient"/>
    <linearGradient id="linear-gradient-111" x1="-1058.68" y1="186.46" x2="-1079.49" y2="179.1" gradientTransform="translate(-867.31 -28.18) rotate(-167.31)" xlink:href="#linear-gradient"/>
    <linearGradient id="linear-gradient-112" x1="-1059.66" y1="186.68" x2="-1058.01" y2="186.68" gradientTransform="translate(-867.31 -28.18) rotate(-167.31)" xlink:href="#linear-gradient"/>
    <linearGradient id="linear-gradient-113" x1="-1064.95" y1="185.91" x2="-1062.78" y2="185.91" gradientTransform="translate(-867.31 -28.18) rotate(-167.31)" xlink:href="#linear-gradient"/>
    <linearGradient id="linear-gradient-114" x1="-1070.54" y1="184.26" x2="-1068.15" y2="184.26" gradientTransform="translate(-867.31 -28.18) rotate(-167.31)" xlink:href="#linear-gradient"/>
    <linearGradient id="linear-gradient-115" x1="-1082.9" y1="201.73" x2="-1088.32" y2="168.56" gradientTransform="translate(-867.31 -28.18) rotate(-167.31)" xlink:href="#linear-gradient"/>
    <linearGradient id="linear-gradient-116" x1="-1083.94" y1="201.52" x2="-1082.28" y2="201.52" gradientTransform="translate(-867.31 -28.18) rotate(-167.31)" xlink:href="#linear-gradient"/>
    <linearGradient id="linear-gradient-117" x1="-1083.74" y1="196.04" x2="-1081.58" y2="196.04" gradientTransform="translate(-867.31 -28.18) rotate(-167.31)" xlink:href="#linear-gradient"/>
    <linearGradient id="linear-gradient-118" x1="-1084.05" y1="190.81" x2="-1081.66" y2="190.81" gradientTransform="translate(-867.31 -28.18) rotate(-167.31)" xlink:href="#linear-gradient"/>
    <linearGradient id="linear-gradient-119" x1="-1085.02" y1="185.02" x2="-1082.35" y2="185.02" gradientTransform="translate(-867.31 -28.18) rotate(-167.31)" xlink:href="#linear-gradient"/>
    <linearGradient id="linear-gradient-120" x1="-1086.67" y1="178.97" x2="-1084" y2="178.97" gradientTransform="translate(-867.31 -28.18) rotate(-167.31)" xlink:href="#linear-gradient"/>
    <linearGradient id="linear-gradient-121" x1="-1097.89" y1="108.36" x2="-1101.95" y2="85.77" gradientTransform="translate(-867.31 -28.18) rotate(-167.31)" xlink:href="#linear-gradient"/>
    <linearGradient id="linear-gradient-122" x1="-1098.2" y1="107.68" x2="-1096.54" y2="107.68" gradientTransform="translate(-867.31 -28.18) rotate(-167.31)" xlink:href="#linear-gradient"/>
    <linearGradient id="linear-gradient-123" x1="-1100.3" y1="103.49" x2="-1098.13" y2="103.49" gradientTransform="translate(-867.31 -28.18) rotate(-167.31)" xlink:href="#linear-gradient"/>
    <linearGradient id="linear-gradient-124" x1="-1101.96" y1="97.82" x2="-1099.57" y2="97.82" gradientTransform="translate(-867.31 -28.18) rotate(-167.31)" xlink:href="#linear-gradient"/>
    <linearGradient id="linear-gradient-125" x1="-1080.77" y1="55.14" x2="-1073.6" y2="55.14" gradientTransform="translate(-867.31 -28.18) rotate(-167.31)" xlink:href="#linear-gradient"/>
    <linearGradient id="linear-gradient-126" x1="-1081.22" y1="65.71" x2="-1079.56" y2="65.71" gradientTransform="translate(-867.31 -28.18) rotate(-167.31)" xlink:href="#linear-gradient"/>
    <linearGradient id="linear-gradient-127" x1="-1081.52" y1="61.06" x2="-1079.35" y2="61.06" gradientTransform="translate(-867.31 -28.18) rotate(-167.31)" xlink:href="#linear-gradient"/>
    <linearGradient id="linear-gradient-128" x1="-1080.97" y1="55.85" x2="-1078.59" y2="55.85" gradientTransform="translate(-867.31 -28.18) rotate(-167.31)" xlink:href="#linear-gradient"/>
    <linearGradient id="linear-gradient-129" x1="-1090.4" y1="153.15" x2="-1100.81" y2="142.48" gradientTransform="translate(-867.31 -28.18) rotate(-167.31)" xlink:href="#linear-gradient"/>
    <linearGradient id="linear-gradient-130" x1="-1091.15" y1="152.8" x2="-1089.5" y2="152.8" gradientTransform="translate(-867.31 -28.18) rotate(-167.31)" xlink:href="#linear-gradient"/>
    <linearGradient id="linear-gradient-131" x1="-1094.69" y1="150.39" x2="-1092.52" y2="150.39" gradientTransform="translate(-867.31 -28.18) rotate(-167.31)" xlink:href="#linear-gradient"/>
    <linearGradient id="linear-gradient-132" x1="-1098.15" y1="147.24" x2="-1095.76" y2="147.24" gradientTransform="translate(-867.31 -28.18) rotate(-167.31)" xlink:href="#linear-gradient"/>
    <linearGradient id="linear-gradient-133" x1="-1116.91" y1="139.99" x2="-1104.5" y2="139.99" gradientTransform="translate(-867.31 -28.18) rotate(-167.31)" xlink:href="#linear-gradient"/>
    <linearGradient id="linear-gradient-134" x1="-1117.56" y1="156.27" x2="-1115.9" y2="156.27" gradientTransform="translate(-867.31 -28.18) rotate(-167.31)" xlink:href="#linear-gradient"/>
    <linearGradient id="linear-gradient-135" x1="-1115.19" y1="152.23" x2="-1113.02" y2="152.23" gradientTransform="translate(-867.31 -28.18) rotate(-167.31)" xlink:href="#linear-gradient"/>
    <linearGradient id="linear-gradient-136" x1="-1112.96" y1="147.74" x2="-1110.57" y2="147.74" gradientTransform="translate(-867.31 -28.18) rotate(-167.31)" xlink:href="#linear-gradient"/>
    <linearGradient id="linear-gradient-137" x1="-1110.88" y1="142.88" x2="-1108.21" y2="142.88" gradientTransform="translate(-867.31 -28.18) rotate(-167.31)" xlink:href="#linear-gradient"/>
    <linearGradient id="linear-gradient-138" x1="-1108.99" y1="137.68" x2="-1106.31" y2="137.68" gradientTransform="translate(-867.31 -28.18) rotate(-167.31)" xlink:href="#linear-gradient"/>
    <linearGradient id="linear-gradient-139" x1="-1121.69" y1="101.09" x2="-1098.25" y2="81.12" gradientTransform="translate(-867.31 -28.18) rotate(-167.31)" xlink:href="#linear-gradient"/>
    <linearGradient id="linear-gradient-140" x1="-1123.08" y1="100.06" x2="-1121.42" y2="100.06" gradientTransform="translate(-867.31 -28.18) rotate(-167.31)" xlink:href="#linear-gradient"/>
    <linearGradient id="linear-gradient-141" x1="-1118.92" y1="98.07" x2="-1116.76" y2="98.07" gradientTransform="translate(-867.31 -28.18) rotate(-167.31)" xlink:href="#linear-gradient"/>
    <linearGradient id="linear-gradient-142" x1="-1114.74" y1="95.25" x2="-1112.36" y2="95.25" gradientTransform="translate(-867.31 -28.18) rotate(-167.31)" xlink:href="#linear-gradient"/>
    <linearGradient id="linear-gradient-143" x1="-1110.8" y1="92.21" x2="-1108.12" y2="92.21" gradientTransform="translate(-867.31 -28.18) rotate(-167.31)" xlink:href="#linear-gradient"/>
    <linearGradient id="linear-gradient-144" x1="-1106.79" y1="88.42" x2="-1104.11" y2="88.42" gradientTransform="translate(-867.31 -28.18) rotate(-167.31)" xlink:href="#linear-gradient"/>
    <linearGradient id="linear-gradient-145" x1="-1063.37" y1="72.64" x2="-1070.82" y2="43.2" gradientTransform="translate(-867.31 -28.18) rotate(-167.31)" xlink:href="#linear-gradient"/>
    <linearGradient id="linear-gradient-146" x1="-207.03" y1="205.83" x2="-237.05" y2="190.6" gradientTransform="translate(-56.28 154.41) rotate(-167.31)" xlink:href="#linear-gradient"/>
    <linearGradient id="linear-gradient-147" x1="-251.6" y1="206.61" x2="-238.96" y2="189.12" gradientTransform="translate(-56.28 154.41) rotate(-167.31)" xlink:href="#linear-gradient"/>
    <linearGradient id="linear-gradient-148" x1="-221.56" y1="173.76" x2="-254.73" y2="177.03" gradientTransform="translate(-56.28 154.41) rotate(-167.31)" xlink:href="#linear-gradient"/>
    <linearGradient id="linear-gradient-149" x1="-275.5" y1="191.51" x2="-254.62" y2="166.46" gradientTransform="translate(-56.28 154.41) rotate(-167.31)" xlink:href="#linear-gradient"/>
    <linearGradient id="linear-gradient-150" x1="-242.14" y1="159.73" x2="-264.71" y2="158.94" gradientTransform="translate(-56.28 154.41) rotate(-167.31)" xlink:href="#linear-gradient"/>
    <linearGradient id="linear-gradient-151" x1="-287.93" y1="156.64" x2="-269.31" y2="144.68" gradientTransform="translate(-56.28 154.41) rotate(-167.31)" xlink:href="#linear-gradient"/>
    <linearGradient id="linear-gradient-152" x1="-243.61" y1="143.33" x2="-273.17" y2="137.13" gradientTransform="translate(-56.28 154.41) rotate(-167.31)" xlink:href="#linear-gradient"/>
    <linearGradient id="linear-gradient-153" x1="-301.61" y1="132.16" x2="-272.61" y2="125.73" gradientTransform="translate(-56.28 154.41) rotate(-167.31)" xlink:href="#linear-gradient"/>
    <linearGradient id="linear-gradient-154" x1="-255.24" y1="122.83" x2="-274.3" y2="112" gradientTransform="translate(-56.28 154.41) rotate(-167.31)" xlink:href="#linear-gradient"/>
    <linearGradient id="linear-gradient-155" x1="-292.74" y1="103.52" x2="-273.33" y2="101.83" gradientTransform="translate(-56.28 154.41) rotate(-167.31)" xlink:href="#linear-gradient"/>
    <linearGradient id="linear-gradient-156" x1="-249.47" y1="115.23" x2="-270.57" y2="82.06" gradientTransform="translate(-56.28 154.41) rotate(-167.31)" xlink:href="#linear-gradient"/>
    <linearGradient id="linear-gradient-157" x1="-1126.18" y1="80.14" x2="-1099.71" y2="81.88" gradientTransform="translate(-867.31 -28.18) rotate(-167.31)" xlink:href="#linear-gradient"/>
    <linearGradient id="linear-gradient-158" x1="-1112.48" y1="58.26" x2="-1091.19" y2="64.99" gradientTransform="translate(-867.31 -28.18) rotate(-167.31)" xlink:href="#linear-gradient"/>
    <linearGradient id="linear-gradient-159" x1="-288.91" y1="47.98" x2="-251.9" y2="52.72" gradientTransform="translate(-56.28 154.41) rotate(-167.31)" xlink:href="#linear-gradient"/>
    <linearGradient id="linear-gradient-160" x1="-1093.39" y1="25.64" x2="-1070.03" y2="39.85" gradientTransform="translate(-867.31 -28.18) rotate(-167.31)" xlink:href="#linear-gradient"/>
    <linearGradient id="linear-gradient-161" x1="-1074.14" y1="84.28" x2="-1088.58" y2="63.07" gradientTransform="translate(-867.31 -28.18) rotate(-167.31)" xlink:href="#linear-gradient"/>
    <linearGradient id="linear-gradient-162" x1="-1061.08" y1="192.58" x2="-1061.08" y2="19.69" gradientTransform="translate(-867.31 -28.18) rotate(-167.31)" xlink:href="#linear-gradient"/>
  </defs>
  <g id="_Слой_1" data-name=" Слой 1">
    <g>
      <g>
        <path class="cls-154" d="M123.33,181.31c-5.8,1.47-11.83,2.04-17.76,1.63-1.69-.12-3.4-.31-5.05-.5-2.18-.25-4.43-.51-6.64-.58-4.57-.16-8.21.53-11.14,2.1-.25.13-.58.05-.72-.21-.15-.26-.06-.58.19-.73,5.6-3.37,11.71-5.16,18.14-5.33,2.9-.07,5.83.2,8.66.46,2.06.19,4.2.39,6.29.45,8.31.24,15.1-.95,21.36-3.75.29-.13.58,0,.71.25.13.26.03.57-.22.72-4.32,2.43-8.99,4.28-13.82,5.5h0ZM88.88,180.97c1.55-.2,3.23-.26,5.04-.2,2.26.08,4.53.34,6.73.59,1.64.19,3.33.38,5,.5,7.62.53,15.41-.59,22.62-3.18-3.97.82-8.24,1.14-13,1-2.13-.06-4.28-.26-6.36-.45-2.8-.26-5.7-.53-8.53-.46-3.97.1-7.82.84-11.49,2.21h-.01Z"/>
        <path class="cls-23" d="M113.72,193.09c-3.39.86-6.83,1.33-10.09,1.72-.29.03-.55-.17-.6-.45-.04-.29.19-.53.43-.62,3.75-.72,7.98-2.72,12.64-5.86,1.72-1.15,3.3-2.43,4.84-3.67,1.86-1.5,3.79-3.04,5.95-4.39,4.73-2.94,9.01-4.54,13.08-4.89.28-.03.54.18.58.46.04.28-.11.5-.42.61-2.39.52-4.78,1.99-7.41,4.57-.81.79-1.58,1.62-2.35,2.45-1.29,1.38-2.62,2.81-4.1,4.06-2.85,2.38-6.48,4.24-10.79,5.53-.59.17-1.17.34-1.77.49h.01ZM109.48,192.89c1.91-.34,3.82-.76,5.7-1.32,4.16-1.24,7.66-3.03,10.4-5.32,1.43-1.2,2.74-2.6,4.01-3.96.78-.84,1.56-1.68,2.38-2.49,1.16-1.14,2.28-2.08,3.38-2.82-2.49.79-5.11,2.04-7.89,3.77-2.11,1.31-4.01,2.83-5.85,4.31-1.56,1.25-3.16,2.54-4.91,3.72-2.56,1.72-4.95,3.09-7.22,4.11h0Z"/>
        <path class="cls-72" d="M39.07,124.69c-.1.02-.2,0-.27-.08-3.36-3.86-9.06-6.47-14.09-8.76-2.53-1.16-4.92-2.25-6.68-3.37-.13-.08-.16-.25-.08-.37.08-.13.24-.17.37-.08,1.73,1.1,4.1,2.18,6.61,3.33,5.08,2.32,10.83,4.95,14.27,8.9.1.11.09.28-.03.38-.03.03-.07.05-.11.06h0Z"/>
        <path class="cls-58" d="M48.56,132.21h-.05c-.14,0-.27-.09-.29-.23-.7-5.2-1.5-11.09.17-16.5,1.69-5.47,5.74-9.92,9.31-13.83.08-.09.2-.12.32-.06.11.05.17.17.15.29-.67,3.65-2.83,10.86-4.41,14.06-1.9,3.87-5.07,11.09-5,16,0,.13-.09.23-.21.26h.01ZM57.44,102.73c-3.36,3.7-6.98,7.88-8.54,12.91-1.37,4.44-1.04,9.25-.49,13.72.73-4.71,3.25-10.38,4.85-13.65,1.43-2.91,3.35-9.17,4.17-12.97h.01Z"/>
        <path class="cls-74" d="M35.49,110.98s-.11,0-.16,0c-.13-.05-.21-.19-.17-.33l.26-.97c.92-3.47,1.79-6.75,3.02-10.1,1.22-3.34,3.1-7.42,6.78-9.38.11-.06.24-.04.32.05.09.09.1.22.04.33-1.14,1.94-1.65,4.02-2.14,6.03-.35,1.44-.68,2.8-1.23,4.01-.79,1.76-2.04,3.44-3.24,5.06-1.22,1.64-2.48,3.34-3.3,5.15-.03.08-.1.13-.18.15h0ZM44.64,91.18c-2.98,2.02-4.6,5.61-5.69,8.59-1.07,2.93-1.87,5.81-2.68,8.81.69-1.11,1.48-2.18,2.26-3.23,1.24-1.67,2.41-3.25,3.18-4.96.52-1.16.85-2.5,1.2-3.92.43-1.75.87-3.56,1.73-5.3h0Z"/>
        <path class="cls-126" d="M31.52,88.94c-.09.02-.19,0-.26-.08-.1-.1-.1-.26,0-.37,1.32-1.42,2.2-3.55,3.04-5.61.46-1.13.9-2.2,1.41-3.15,2.12-3.97,5.7-6.97,8.59-9.14,1.4-1.05,2.81-1.87,4.18-2.67,1.96-1.14,3.81-2.21,5.55-3.88.1-.11.27-.1.37,0,.11.1.12.26.02.37-1.36,1.58-2.73,3.23-4.13,4.91-5.71,6.86-11.61,13.95-18.66,19.57-.03.02-.07.04-.1.05h-.01ZM52.09,66.31c-1.08.76-2.2,1.41-3.35,2.08-1.36.79-2.76,1.6-4.13,2.63-2.84,2.14-6.37,5.09-8.43,8.97-.49.92-.93,1.98-1.39,3.1-.57,1.38-1.15,2.8-1.87,4.03,6.3-5.35,11.71-11.85,16.95-18.14.75-.9,1.49-1.79,2.23-2.67h-.01Z"/>
        <path class="cls-115" d="M30.58,105.08c-.1.03-.22,0-.28-.1-2.46-3.32-6.31-5.81-10.04-8.22-1.79-1.16-3.49-2.26-5.05-3.45-2.45-1.87-4.34-4.03-6.16-6.13-2.22-2.55-4.52-5.18-7.9-7.41-.11-.08-.15-.22-.09-.34.05-.13.2-.19.33-.14,4.08,1.42,8.52,3.59,12.51,6.13,7.46,4.73,12.23,11.81,16.85,19.25.07.12.04.28-.08.37-.03.02-.05.03-.09.04h0ZM3.11,80.51c2.57,1.98,4.48,4.18,6.35,6.32,1.89,2.17,3.68,4.22,6.08,6.05,1.55,1.18,3.23,2.27,5.02,3.42,2.8,1.81,5.67,3.68,8,5.91-4.08-6.36-8.5-12.24-14.95-16.33-3.35-2.12-7.01-3.99-10.5-5.36h0Z"/>
        <path class="cls-90" d="M25.15,71.69c-.14.03-.28-.04-.32-.17-1.85-5.47-4.32-8.65-6.7-11.71-.74-.95-1.51-1.94-2.24-2.97-.09-.12-.05-.29.06-.38.12-.08.29-.06.38.06.72,1.02,1.48,2,2.22,2.95,2.41,3.1,4.91,6.31,6.79,11.87.05.14-.03.3-.17.34h-.02Z"/>
        <path class="cls-117" d="M43.82,30.3s-.1.01-.15,0c-.14-.05-.22-.2-.17-.34,1.36-4.12,1.35-9.99,1.34-16.2,0-2,0-4.07.04-6.09,0-.15.13-.27.28-.27s.27.13.27.28c-.04,2.01-.04,4.08-.04,6.08,0,6.25.03,12.16-1.37,16.37-.03.09-.1.15-.19.18h-.01Z"/>
        <path class="cls-33" d="M42.11,43.43c-.1.03-.21,0-.28-.09-.09-.12-.07-.29.05-.38,7.17-5.6,12.57-7.9,17.79-10.12,2.41-1.02,4.9-2.08,7.51-3.45.12-.07.29-.02.37.11.07.13.02.3-.11.37-2.64,1.38-5.13,2.44-7.56,3.47-5.19,2.21-10.56,4.49-17.67,10.05-.03.02-.06.04-.1.05h0Z"/>
        <path class="cls-120" d="M29.54,52.26h-.02c-.15.03-.29-.07-.31-.22-.8-4.83-2.12-9.3-3.51-14.03-1.5-5.1-3.05-10.38-3.9-16.15-.02-.15.1-.26.23-.31.15-.02.29.08.31.23.84,5.74,2.39,10.99,3.89,16.08,1.4,4.74,2.72,9.23,3.53,14.09.02.14-.07.27-.2.3h-.02Z"/>
        <path class="cls-34" d="M33.29,62.01c-.09.02-.19,0-.26-.07-.1-.11-.1-.28,0-.38,4.55-4.44,8.55-6.19,12.08-7.73,2.17-.95,4.22-1.84,6.12-3.25.11-.08.29-.07.38.06.09.12.06.29-.06.38-1.95,1.45-4.03,2.35-6.22,3.31-3.49,1.52-7.44,3.24-11.91,7.62-.04.03-.08.05-.12.07h0Z"/>
        <path class="cls-7" d="M52.05,22.66c-.09.02-.19,0-.26-.08-.09-.09-.1-.23-.03-.33,6.98-10.98,12.24-13.96,17.33-16.85,1.33-.75,2.7-1.53,4.09-2.44.1-.08.25-.06.34.04.09.09.1.24.03.34-5.35,7.87-12.56,14.36-21.43,19.3-.02.01-.04.02-.06.02h0ZM72.34,4.14c-1.01.62-2.01,1.19-2.98,1.74-5.11,2.9-9.95,5.64-16.55,15.75,7.95-4.58,14.5-10.46,19.52-17.48h.01Z"/>
        <g>
          <g>
            <path class="cls-103" d="M101.03,159.6c-.13.03-.26-.03-.31-.15-1.96-4.32-2.95-9.13-2.65-12.84.01-.15.14-.26.29-.25s.26.14.25.29c-.29,3.63.68,8.33,2.61,12.58.06.14,0,.3-.14.36-.01,0-.03,0-.05,0Z"/>
            <path class="cls-6" d="M98.68,156.22s-.1,0-.15,0c-3.45-1.19-6.49-3.68-8.33-6.83-.08-.13-.03-.29.1-.37.14-.08.29-.03.37.1,1.77,3.04,4.7,5.45,8.04,6.59.14.05.22.2.17.34-.03.09-.11.15-.19.17h0Z"/>
            <path class="cls-152" d="M112.33,170.11c-.1.02-.21,0-.27-.09-3.14-3.75-5.1-8.49-5.53-13.36-.01-.15.09-.27.25-.29.15,0,.28.1.29.25.41,4.76,2.33,9.4,5.4,13.06.1.11.08.29-.03.38-.03.03-.07.04-.11.05h0Z"/>
            <path class="cls-112" d="M106.56,166.02h-.07c-3.3-.06-6.5-1.03-9.27-2.82-.12-.08-.16-.25-.08-.37s.25-.16.37-.08c2.65,1.71,5.84,2.68,8.99,2.73.15,0,.27.13.27.28,0,.12-.09.23-.21.26h0Z"/>
            <path class="cls-162" d="M125.44,175.06c-.06,0-.12,0-.18,0-4.42-1.97-8.5-4.39-9.86-12.41-.03-.15.07-.28.22-.31s.29.07.31.22c1.32,7.75,5.27,10.1,9.55,12,.14.06.2.22.14.36-.03.08-.1.13-.18.15h0Z"/>
            <path class="cls-123" d="M117.52,172.76h0c-3.17.67-5.94.52-8.45-.45-.14-.05-.21-.21-.15-.35.05-.14.21-.2.35-.15,2.41.94,5.08,1.08,8.14.43.15-.03.29.06.32.21.03.14-.06.28-.2.32h-.01Z"/>
            <path class="cls-107" d="M127.91,175.56s-.08,0-.12,0c-10.09-1.87-17.43-5.49-23.08-11.38-6.34-6.61-11.46-16.19-13.38-25.01-.03-.15.06-.28.2-.32h0c.15-.03.29.06.32.21,1.9,8.73,6.97,18.21,13.24,24.74,5.57,5.81,12.82,9.37,22.79,11.22.15.03.24.17.22.32-.02.11-.1.19-.2.21h0Z"/>
            <path class="cls-133" d="M133.44,175.71s-.08,0-.13,0c-3.85-.86-6.73-2.57-8.25-8.09-.04-.15.04-.29.19-.33.15-.05.29.04.33.19,1.45,5.27,4.07,6.86,7.84,7.7.15.03.24.18.2.32-.02.1-.1.18-.2.2h.02Z"/>
          </g>
          <g>
            <circle class="cls-78" cx="91.32" cy="138.05" r="2.03"/>
            <circle class="cls-155" cx="96.13" cy="162.09" r="2.03"/>
            <path class="cls-79" d="M100.72,144.4c.27,1.09-.38,2.19-1.47,2.46s-2.19-.38-2.46-1.47.38-2.19,1.47-2.46,2.19.38,2.46,1.47Z"/>
            <path class="cls-30" d="M117.68,160.35c.27,1.08-.38,2.19-1.47,2.46s-2.19-.38-2.46-1.47.38-2.19,1.47-2.46,2.19.38,2.46,1.47Z"/>
            <circle class="cls-52" cx="89.33" cy="148.1" r="2.14"/>
            <circle class="cls-36" cx="106.69" cy="154.64" r="2.14"/>
            <circle class="cls-9" cx="125.09" cy="165.69" r="2.14"/>
            <circle class="cls-106" cx="107.57" cy="171.41" r="2.14"/>
          </g>
        </g>
        <g>
          <g>
            <path class="cls-60" d="M39.93,40.59c-.07.02-.15,0-.22-.04-.12-.08-.16-.25-.07-.37,4.84-7.22,12.03-12.78,20.24-15.65h.02c.14-.04.27.03.32.17s-.03.3-.17.34c-8.1,2.83-15.19,8.31-19.97,15.44-.04.06-.1.1-.16.11h.01Z"/>
            <path class="cls-156" d="M61.03,24.4c.11.44-.16.89-.6,1s-.89-.16-1-.6.16-.89.6-1,.89.16,1,.6Z"/>
            <path class="cls-148" d="M56.59,26.32c.15.58-.2,1.17-.78,1.31s-1.17-.2-1.31-.78.2-1.17.78-1.31,1.17.2,1.31.78Z"/>
            <path class="cls-86" d="M51.79,29.24c.16.64-.23,1.29-.86,1.45s-1.29-.23-1.45-.86.23-1.29.86-1.45,1.29.22,1.45.86Z"/>
          </g>
          <g>
            <path class="cls-73" d="M34.51,54.07s-.07.01-.11,0c-.15-.03-.25-.17-.22-.31,2.45-13.75,3.79-24.48-1.24-37.34-.05-.14,0-.3.15-.35h.03c.13-.04.27.03.32.15,5.09,13,3.73,23.8,1.27,37.63-.02.11-.1.19-.2.21h0Z"/>
            <path class="cls-59" d="M33.85,15.97c.11.44-.16.89-.6,1s-.89-.16-1-.6.16-.89.6-1,.89.16,1,.6Z"/>
            <circle class="cls-132" cx="34.83" cy="21.38" r="1.08"/>
            <path class="cls-38" d="M37.08,26.19c.16.64-.23,1.29-.86,1.45s-1.29-.22-1.45-.86.23-1.29.86-1.45,1.29.22,1.45.86Z"/>
            <circle class="cls-75" cx="36.55" cy="32.31" r="1.34"/>
            <circle class="cls-43" cx="36.43" cy="38.59" r="1.34"/>
          </g>
          <g>
            <path class="cls-35" d="M44.2,133.3c-.13.03-.27-.03-.32-.16-2.87-7.08-3.54-15.09-1.89-22.56.03-.15.18-.24.32-.2.15.03.24.17.2.32-1.63,7.36-.97,15.26,1.86,22.24.06.14,0,.3-.15.35,0,0-.02,0-.03,0h0Z"/>
            <path class="cls-150" d="M43.06,110.44c.11.44-.16.89-.6,1s-.89-.16-1-.6.16-.89.6-1,.89.16,1,.6Z"/>
            <path class="cls-15" d="M42.55,114.9c.15.58-.2,1.17-.78,1.31s-1.17-.2-1.31-.78.2-1.17.78-1.31,1.17.2,1.31.78Z"/>
            <path class="cls-29" d="M42.55,120.74c.16.64-.22,1.29-.86,1.45s-1.29-.23-1.45-.86.22-1.29.86-1.45,1.29.23,1.45.86Z"/>
          </g>
          <g>
            <path class="cls-68" d="M80.56,166.19c-.07.02-.14,0-.21-.03-7.14-4.43-9.67-10.24-11.64-18.78-.03-.14.05-.29.2-.32h0c.15-.04.29.06.32.2,1.94,8.4,4.42,14.11,11.4,18.44.13.08.17.24.09.37-.04.06-.1.1-.16.12h0Z"/>
            <path class="cls-135" d="M69.83,146.96c.11.44-.16.89-.6,1s-.89-.16-1-.6.16-.89.6-1,.89.16,1,.6Z"/>
            <path class="cls-16" d="M71.17,151.42c.15.58-.2,1.17-.78,1.31s-1.17-.2-1.31-.78.2-1.17.78-1.31,1.17.2,1.31.78Z"/>
            <circle class="cls-51" cx="72.04" cy="156.57" r="1.19"/>
          </g>
          <g>
            <path class="cls-146" d="M30.3,79.37s-.09.01-.14,0c-.15-.04-.23-.19-.19-.33,1.39-5.11,4.03-9.85,7.64-13.71.11-.11.28-.12.38-.01.11.1.12.27,0,.38-3.55,3.8-6.15,8.46-7.51,13.48-.03.1-.1.17-.19.19Z"/>
            <circle class="cls-71" cx="38.02" cy="65.17" r=".83"/>
            <path class="cls-114" d="M36.47,68.06c.15.58-.2,1.17-.78,1.31s-1.17-.2-1.31-.78.2-1.17.78-1.31,1.17.2,1.31.78Z"/>
            <path class="cls-89" d="M34.11,71.9c.16.64-.22,1.29-.86,1.45s-1.29-.23-1.45-.86.22-1.29.86-1.45,1.29.23,1.45.86Z"/>
          </g>
          <g>
            <path class="cls-46" d="M31.18,97.05c-.13.03-.27-.04-.32-.16-4.08-10.8-10.77-20.58-19.36-28.28-.11-.1-.12-.27-.02-.38s.27-.13.38-.02c8.65,7.76,15.39,17.61,19.5,28.49.05.14-.02.3-.16.35h-.03,0Z"/>
            <path class="cls-14" d="M12.37,68.08c.11.44-.16.89-.6,1s-.89-.16-1-.6.16-.89.6-1,.89.16,1,.6Z"/>
            <path class="cls-82" d="M16.15,71.31c.15.58-.2,1.17-.78,1.31s-1.17-.2-1.31-.78.2-1.17.78-1.31,1.17.2,1.31.78Z"/>
            <path class="cls-41" d="M19.63,75.05c.16.64-.23,1.29-.86,1.45s-1.29-.23-1.45-.86.22-1.29.86-1.45,1.29.23,1.45.86Z"/>
            <circle class="cls-28" cx="21.82" cy="79.51" r="1.34"/>
            <circle class="cls-92" cx="24.94" cy="84.09" r="1.34"/>
          </g>
          <g>
            <path class="cls-49" d="M46.23,137.18c-.09.02-.18,0-.25-.06-7.12-6.64-16.33-11.19-25.92-12.82-.15-.03-.25-.17-.22-.31.02-.15.17-.25.31-.22,9.7,1.65,19,6.25,26.2,12.96.11.1.11.27,0,.38-.04.04-.08.06-.13.08h0Z"/>
            <path class="cls-119" d="M20.81,123.93c.11.44-.16.89-.6,1s-.89-.16-1-.6.16-.89.6-1,.89.16,1,.6Z"/>
            <circle class="cls-20" cx="24.78" cy="124.99" r="1.08"/>
            <path class="cls-4" d="M30.79,126.38c.16.64-.23,1.29-.86,1.45s-1.29-.22-1.45-.86.23-1.29.86-1.45,1.29.23,1.45.86Z"/>
            <circle class="cls-104" cx="34.34" cy="128.62" r="1.34"/>
            <circle class="cls-157" cx="39.16" cy="131.29" r="1.34"/>
          </g>
        </g>
        <path class="cls-27" d="M81.49,161.08c-2.41-5.23-2.79-8.69-2.79-8.69,0,0,1.3,4.48,3.46,8.57,1.34,2.51,3.11,5.56,5.24,7.47.07.06.02.15.01.23,1.88.73,3.83,1.29,5.78,1.64-2.75-1.52-5.68-3.23-6.93-6.12-1.15-2.64-.62-5.69-1.22-8.5-.74-3.46-3.1-6.3-5.29-9.07s-4.37-5.84-4.61-9.36c-.52,4.89-.94,9.53-.32,14.41s2.49,9.76,6.08,13.11c1.62,1.51,3.02,2.43,5.09,3.33-1.72-1.74-3.34-4.5-4.49-7.01h-.01Z"/>
        <path class="cls-11" d="M51.44,23.27c-.18.05-.38,0-.52-.14-.18-.18-.21-.46-.07-.67.77-1.22,1.25-2.5,1.76-3.84,1.08-2.87,2.3-6.11,6.68-10.44,3.22-3.18,6.71-4.02,10.09-4.87,1.56-.38,3.02-.74,4.44-1.32.2-.09.46-.03.61.15s.18.43.06.63c-.03.05-3.12,5.36-4.87,8.64-3.73,6.99-11.36,9.49-15.45,10.84-1.2.39-2.14.7-2.57.97-.05.03-.1.06-.16.07v-.02ZM68.71,4.58c-2.94.75-5.94,1.68-8.66,4.36-4.22,4.16-5.39,7.29-6.43,10.05-.34.9-.67,1.78-1.08,2.64.38-.13.81-.28,1.29-.43,4.23-1.39,11.31-3.72,14.83-10.32,1.23-2.31,3.11-5.6,4.15-7.39-1.05.34-2.12.61-3.17.86-.31.08-.62.15-.93.23Z"/>
        <path class="cls-91" d="M42.39,36.36c-.1.03-.21.02-.32-.02-.27-.1-.42-.39-.34-.66,0-.02.33-1.14.73-2.46.28-1.43.34-2.94.14-4.16-.11-.64-.37-1.47-.67-2.43-.62-1.97-1.39-4.42-1.52-7.29-.12-2.49,1.12-5.15,2.31-7.72.92-1.99,1.79-3.87,1.97-5.49.02-.25.18-.43.47-.48.25-.03.49.11.58.35.13.35,3.22,8.63,2.64,13.99-.42,3.88-1.89,6.64-2.97,8.66-.41.76-.76,1.43-.95,1.96-.29.82-.63,1.89-.92,2.85-.18.92-.44,1.8-.77,2.59-.07.16-.21.27-.37.31h-.01ZM45.33,8.17c-.4,1.24-1,2.55-1.63,3.9-1.13,2.46-2.31,5-2.21,7.22.13,2.73.87,5.11,1.47,7.02.31,1,.58,1.86.7,2.58.03.2.06.4.08.6.2-.41.44-.86.7-1.35,1.03-1.94,2.44-4.59,2.84-8.27.4-3.66-1.08-8.96-1.96-11.7h0Z"/>
        <path class="cls-109" d="M36.8,48.08c-.18.05-.37,0-.52-.14-.2-.2-.21-.53-.02-.74,2.06-2.35,4.16-4.06,5.7-5.32.75-.61,1.34-1.09,1.69-1.45.23-.23.53-.7.88-1.25,1.3-2,3.48-5.36,7.9-7.51,3.61-1.75,7.22-2.16,10.4-2.52,1.87-.21,3.66-.41,5.26-.85h0c.24-.06.49.05.61.26.12.22.08.49-.11.66-.03.03-2.92,2.68-5.71,5.87l-.58.67c-2.52,2.92-4.51,5.23-11.97,6.62-1.15.22-2.14.38-3.01.54-4.97.84-5.73.99-10.3,5.04-.07.06-.14.1-.23.12h0ZM43.62,42.52c.96-.24,2.07-.43,3.52-.68.86-.15,1.85-.32,2.99-.53,7.11-1.33,8.88-3.39,11.35-6.26l.59-.68c1.61-1.84,3.26-3.51,4.38-4.61-1.13.2-2.3.33-3.51.46-3.24.36-6.6.75-10.05,2.41-4.15,2.03-6.23,5.22-7.47,7.13-.4.61-.72,1.1-1.01,1.41-.4.41-1.01.91-1.79,1.54-.07.05-.13.11-.2.17.37-.13.76-.25,1.18-.36h.02Z"/>
        <path class="cls-37" d="M32.04,64.19s-.03,0-.05.01c-.3.05-.57-.16-.62-.45h0s-.03-.19-.07-.46c-.26-1.58-1.19-6.92-2.72-10.65-.41-1-1.19-1.76-2.17-2.73-1.74-1.69-4.11-4.01-5.84-9.25-1.81-5.51-.69-11.33.13-15.57.37-1.94.7-3.62.55-4.5-.04-.26.11-.51.36-.6.21-.1.52.02.65.25.83,1.48,1.85,2.84,2.94,4.28,2.58,3.42,5.51,7.29,6.27,13.77.65,5.57-.02,8.17-.56,10.26-.34,1.33-.61,2.38-.49,3.9.82,3.76,1.61,8.6,1.9,10.4.07.41.11.66.11.72h0c.04.28-.14.54-.4.61h.01ZM22.28,22.33c-.11.85-.3,1.84-.51,2.96-.8,4.13-1.89,9.79-.16,15.03,1.64,4.98,3.82,7.11,5.56,8.81.87.85,1.63,1.6,2.15,2.53,0-1.28.26-2.27.55-3.39.52-2,1.16-4.5.53-9.87-.72-6.19-3.44-9.78-6.06-13.25-.72-.96-1.42-1.88-2.06-2.84v.02Z"/>
        <path class="cls-13" d="M31.91,65.99c-.11.03-.22.02-.33-.02-.27-.1-.41-.4-.32-.67.13-.39,3.18-9.57,8.92-12.63,5.02-2.68,11.45-2.71,11.72-2.7.2,0,.38.1.47.28.09.17.09.38,0,.54-.15.25-3.76,6.13-7.95,8.52-2.78,1.6-4.79,1.67-6.25,1.73-.78.04-1.39.05-1.96.28-1.52.6-2.92,2.16-3.94,4.38-.07.15-.2.26-.36.3h0ZM36.3,60.15c.57-.14,1.17-.17,1.83-.2,1.43-.06,3.2-.13,5.75-1.59,3.03-1.73,5.84-5.57,7-7.28-2,.12-6.55.6-10.19,2.54-2.9,1.54-5.11,4.91-6.54,7.68.53-.43,1.08-.77,1.65-.99.16-.07.33-.12.49-.16h0Z"/>
        <path class="cls-19" d="M30.5,90.78s-.06,0-.09,0c-.29.02-.55-.18-.58-.47-.78-6.26-3.84-15.18-5.6-18.58-.86-.29-3.83-1.48-5.46-4.79-1-2.02-1.67-4.32-2.26-6.36-.48-1.65-.93-3.2-1.46-4.21-.11-.2-.07-.44.08-.61.16-.16.39-.22.6-.14.31.12,7.6,3.06,9.69,7.4,1.46,3.03,1.03,5.19.72,6.77-.14.7-.26,1.3-.2,1.84.06.53.52,1.75,1.1,3.31,1.45,3.87,3.64,9.73,3.86,15.29,0,.26-.16.49-.41.55h.01ZM16.58,57.19c.33.9.64,1.95.98,3.1.58,1.99,1.24,4.24,2.19,6.18,1.66,3.37,4.97,4.29,5,4.3.05.01.09.03.13.05.04-.4.12-.81.21-1.23.31-1.59.67-3.38-.64-6.09-1.42-2.94-5.72-5.29-7.87-6.31Z"/>
        <path class="cls-67" d="M30.59,91.62c-.11.03-.23.02-.35-.03-.26-.11-.39-.41-.29-.68.69-1.99,1.15-4.14,1.6-6.22.76-3.58,1.55-7.28,3.56-10.39,1.87-2.89,4.76-5.31,8.59-7.18,3.7-1.81,7.84-3.06,10.63-3.84.2-.05.38,0,.52.13s.2.33.16.51c-1.61,7.22-6.03,13.78-12.13,17.98-1.15.79-2.37,1.51-3.54,2.2-1.04.61-2.11,1.24-3.13,1.92-2.53,1.69-4.25,3.43-5.26,5.32-.08.14-.2.23-.35.27h0ZM53.73,64.59c-2.69.77-6.3,1.93-9.55,3.51-3.65,1.78-6.4,4.07-8.16,6.79-1.9,2.95-2.67,6.55-3.41,10.03-.23,1.09-.47,2.21-.75,3.31.99-1.07,2.23-2.1,3.74-3.11,1.04-.69,2.13-1.33,3.18-1.95,1.16-.68,2.36-1.39,3.48-2.16,5.63-3.87,9.77-9.82,11.48-16.43h-.01Z"/>
        <path class="cls-56" d="M34.33,111.64c-.24.06-.5-.05-.62-.28-.52-1.02-1.04-2.05-1.56-3.07-1.81-2.89-4.4-5.3-7.42-6.85-1.51-.78-3.16-1.36-4.76-1.93-2.26-.81-4.61-1.64-6.65-3.04-3.39-2.32-5.55-5.88-7.63-9.33-1.61-2.67-3.29-5.43-5.52-7.57-.17-.16-.21-.41-.12-.62.1-.21.31-.34.55-.31l1.2.13c5.07.55,10.31,1.11,14.7,3.9,5.73,3.64,9.04,10.21,11.69,15.49,1.07,2.12,2.15,4.24,3.24,6.35.55,1.08,1.11,2.17,1.66,3.25.63,1,1.16,2.06,1.6,3.16.11.27-.02.57-.28.69-.03,0-.06.02-.09.03h0ZM1.98,79.88c1.81,2.03,3.25,4.4,4.64,6.7,2.12,3.5,4.12,6.81,7.32,9,1.93,1.32,4.1,2.09,6.4,2.91,1.63.58,3.31,1.18,4.88,1.99,1.68.86,3.24,1.98,4.61,3.29-.87-1.71-1.74-3.41-2.6-5.12-2.6-5.16-5.83-11.57-11.31-15.06-4.1-2.6-9.09-3.19-13.95-3.71h0Z"/>
        <path class="cls-66" d="M35.86,115.44c-.28.07-.57-.09-.65-.37h0c-.96-3.22-.75-5.12-.47-7.74l.12-1.18c.06-.6.1-1.15.13-1.68.17-2.41.32-4.5,1.98-8.25,1.65-3.72,5.57-6.02,8.68-6.93.23-.09.39,0,.52.13.14.13.2.33.16.51-.4,1.76-.42,3.02-.44,4.34-.02,1.12-.03,2.28-.26,3.86-.29,2.02-1.21,4.81-2.6,6.52-.81.99-1.88,1.68-2.91,2.34-.86.55-1.67,1.07-2.33,1.74-1.51,1.54-2.13,3.96-1.53,6.03.08.29-.08.59-.37.67h-.03ZM45.08,90.61c-2.7.98-5.78,2.99-7.13,6.04-1.59,3.58-1.72,5.48-1.89,7.89-.04.54-.08,1.1-.14,1.71l-.12,1.2c-.1.96-.19,1.79-.22,2.62.35-.77.82-1.48,1.42-2.09.75-.76,1.65-1.34,2.52-1.9,1-.64,1.95-1.25,2.66-2.11,1.26-1.55,2.1-4.12,2.37-5.99.22-1.51.23-2.63.25-3.72.02-1.15.03-2.24.28-3.65Z"/>
        <path class="cls-53" d="M40.43,127.23c-.22.06-.45-.03-.58-.23-1.32-1.99-3.51-3.41-5.87-3.8-.79-.13-1.59-.16-2.43-.18-1.05-.03-2.13-.06-3.19-.32-2.21-.53-4.26-1.98-6.45-4.57-.5-.59-.98-1.21-1.46-1.82-1.08-1.37-2.19-2.79-3.51-3.93-.17-.15-.23-.39-.15-.6s.28-.36.51-.35c6.87.03,12.57,1.92,16.51,5.47,3.03,2.74,5.14,6.2,6.97,9.53.14.25.05.57-.19.72-.05.03-.1.05-.15.06v.02ZM18.68,112.56c.95.98,1.79,2.05,2.62,3.09.47.6.95,1.2,1.44,1.79,2.03,2.4,3.89,3.74,5.87,4.21.95.23,1.93.26,2.97.29.84.02,1.71.05,2.57.19,1.3.22,2.57.72,3.69,1.43-1.41-2.24-2.9-4.16-4.77-5.85-3.47-3.13-8.42-4.9-14.39-5.16h0Z"/>
        <path class="cls-40" d="M48.59,140.22c-.1.02-.2.02-.3,0-.26-.08-.42-.35-.36-.62.68-3.42-.3-6.66-1.34-10.09l-.37-1.23c-1.12-3.75-2.38-8.01-1.64-12.16.56-3.11,2.29-6.23,5-9.04,2.4-2.49,5.26-4.46,8.03-6.37.17-.11.37-.13.54-.04.17.08.29.26.3.45.23,3.46.45,6.73-.01,10.25-.52,3.93-1.75,7.28-3.66,9.93-.53.73-1.12,1.44-1.7,2.12-1.31,1.54-2.54,3-3.07,4.81-.56,1.91-.77,3.91-.64,5.94.17,2.53.16,4.47-.42,5.75-.07.15-.21.26-.36.3h0ZM57.44,102.14c-2.47,1.71-4.98,3.51-7.08,5.69-2.57,2.65-4.2,5.58-4.71,8.47-.7,3.9.53,8.03,1.61,11.67l.37,1.22c.24.77.47,1.54.69,2.33.1-1.22.32-2.42.66-3.59.6-2.03,1.96-3.65,3.29-5.21.56-.66,1.14-1.35,1.64-2.05,1.81-2.51,2.97-5.69,3.47-9.44.41-3.09.27-6.02.07-9.08h0Z"/>
        <path class="cls-63" d="M32.9,139.22c4.33.19,9.58-1.49,15.33,1.21-2.83-4.15-7.84-6.72-12.86-6.6-5.78.14-11.26,3.56-17.01,2.91,2.84,2.11,5.66,4.14,8.88,5.62,3.22,1.48,6.76,2.39,10.29,2.16,4.35-.28,8.72-2.23,12.92-1.06,0,0-.64-1.09-1.13-1.53-3.5-3.03-13.43-1.22-16.43-2.71h0Z"/>
        <path class="cls-93" d="M65.14,157.23c-4.82-2.47-6.86-2.74-10.4-2.15-1.97.33-3.79,1.24-5.75,1.61-2.15.4-4.39.1-6.49-.52-2.1-.63-4.08-1.58-6.05-2.53,2.12-.64,3.98-1.75,6.09-2.56s4.35-1.51,6.6-1.29c2.86.28,5.6,2.42,8.3,3.4,1.4.51,2.88.83,4.26,1.4,1.39.56,2.67,1.37,3.44,2.65h0Z"/>
        <path class="cls-88" d="M58.41,163.17c-2.89.47-7.06,1.65-9,2.35,2.3-1.18,4.95-2.43,8.93-3.29,3.68-.81,6.97-1.04,10.63-.94-3.58-1.33-4.73-2.15-8.64-2.38-3.84-.23-7.89.51-11.38,2.12-7.77,3.6-9.42,7.77-14.32,10.83,7.07-.46,13.81-.51,20.5-2.82,4.74-1.64,7.57-3.51,11.23-4.59,3.66-1.08,7.6-1.56,10.86.41-.88-1.37-2.7-2.3-5.79-2.79-1.41-.18-4.83-.22-13.01,1.08v.02Z"/>
        <path class="cls-87" d="M95.1,171.59c-4.49-.41-9.19.31-12.97,2.76-1.71,1.11-3.2,2.54-4.94,3.59-2.16,1.3-4.63,1.96-7.02,2.79-2.38.83-4.78,1.91-6.44,3.81,1.36-3.8,2.89-7.62,5.79-10.43,3.04-2.95,7.56-4.3,11.72-3.51-4.68,1.54-6.53,3.85-10.55,6.35,4.15-1.49,7.31-4.76,11.51-5.92,4.2-1.15,8.81-.92,12.91.55h0Z"/>
        <path class="cls-125" d="M67.59,158.05c-1.13-1.79-2.27-3.61-3.02-5.59s-1.1-4.18-.61-6.24c.51-2.13,1.89-3.98,2.39-6.12,1.13-4.78-2.29-9.61-1.82-14.5-2.25,3.45-4.28,6.88-5.28,10.87-1,3.99-.48,8.6,2.34,11.6-1.33-3.99-1.01-8.32.62-12.2-.64,3.91-1.4,5.81.03,12.04.89,3.87,2.08,8.29,5.34,10.14h0Z"/>
        <path class="cls-139" d="M141.45,175.66s-.89.15-2.55.43c-1.73.18-4.25.43-7.41.5-3.17.06-7.02.07-11.42-.29-2.21-.1-4.54-.37-6.99-.7-2.46-.25-5.03-.67-7.69-1.24-2.68-.46-5.44-1.07-8.25-1.9-2.85-.7-5.74-1.57-8.65-2.71-1.46-.53-2.95-1.07-4.45-1.61-1.45-.68-2.91-1.37-4.39-2.06-1.48-.7-2.97-1.41-4.47-2.13-1.43-.87-2.87-1.74-4.32-2.63-1.44-.91-2.95-1.73-4.36-2.72-1.36-1.06-2.73-2.14-4.11-3.22-1.35-1.11-2.83-2.09-4.09-3.33l-3.74-3.8c-1.21-1.31-2.6-2.47-3.68-3.91l-3.24-4.33c-1.05-1.46-2.23-2.86-3.19-4.39l-2.62-4.76-2.62-4.76c-.77-1.63-1.33-3.36-2.01-5.03-1.17-3.37-2.86-6.69-3.57-10.16-1.92-6.78-3.27-13.75-3.76-20.52-.27-3.38-.49-6.71-.3-9.98.05-1.63.09-3.25.14-4.84.18-1.59.35-3.15.52-4.7.66-6.19,2.12-11.91,3.65-17.12,1.7-5.15,3.56-9.78,5.55-13.71,1.97-3.94,3.9-7.28,5.68-9.9,3.49-5.29,6.03-7.95,6.03-7.95.2-.21.52-.22.73-.02.21.2.22.52.02.73,0,0-2.46,2.58-5.89,7.82-1.75,2.59-3.65,5.89-5.59,9.8-1.96,3.9-3.78,8.47-5.45,13.57-1.49,5.15-2.93,10.8-3.56,16.92-.17,1.53-.33,3.07-.51,4.64-.04,1.58-.08,3.17-.13,4.78-.18,3.23.05,6.52.32,9.86.5,6.68,1.83,13.46,3.77,20.29.72,3.5,2.36,6.6,3.54,9.99.67,1.65,1.22,3.35,1.99,4.96l2.59,4.68,2.59,4.68c.94,1.51,2.11,2.87,3.15,4.31l3.19,4.25c1.06,1.41,2.43,2.55,3.63,3.83l3.69,3.73c1.24,1.22,2.7,2.17,4.03,3.27,1.36,1.06,2.7,2.11,4.04,3.15,1.38.98,2.88,1.78,4.29,2.67,1.43.87,2.85,1.72,4.25,2.57,1.49.7,2.96,1.4,4.41,2.09,1.46.68,2.9,1.35,4.33,2.02,1.48.53,2.95,1.06,4.39,1.57,2.86,1.12,5.72,1.97,8.53,2.65,2.77.82,5.5,1.41,8.15,1.86,2.62.55,5.16.96,7.59,1.2,2.42.33,4.73.59,6.9.68,4.34.35,8.15.33,11.27.26,3.14-.07,5.53-.32,7.16-.49,1.66-.29,2.54-.44,2.54-.44h.03c.44-.08.86.22.94.66s-.22.86-.66.94h.04Z"/>
      </g>
      <g>
        <path class="cls-31" d="M133.79,175.49c-.25-.14-.36-.45-.24-.71.12-.26.41-.4.7-.27,6.33,2.64,13.16,3.64,21.45,3.18,2.09-.12,4.22-.37,6.28-.62,2.82-.34,5.74-.69,8.65-.69,6.43,0,12.58,1.62,18.27,4.84.26.14.35.47.21.73s-.46.36-.72.23c-2.97-1.49-6.64-2.08-11.2-1.8-2.21.13-4.46.45-6.62.76-1.64.23-3.35.47-5.03.64-5.91.57-11.96.16-17.79-1.16-4.86-1.09-9.58-2.82-13.96-5.13h0ZM170.64,177.47c-2.84,0-5.73.35-8.52.68-2.08.25-4.22.5-6.35.62-4.75.26-9.03.05-13.02-.66,7.28,2.4,15.1,3.31,22.7,2.58,1.66-.16,3.35-.4,4.98-.63,2.19-.31,4.45-.63,6.71-.77,1.81-.11,3.49-.09,5.04.07-3.7-1.27-7.57-1.91-11.54-1.9h0Z"/>
        <path class="cls-127" d="M155.89,191.71c-4.34-1.17-8.02-2.93-10.93-5.24-1.52-1.2-2.89-2.6-4.21-3.95-.79-.81-1.58-1.62-2.41-2.39-2.69-2.51-5.12-3.92-7.52-4.37-.31-.11-.47-.32-.43-.6.04-.28.29-.49.57-.47,4.07.24,8.39,1.73,13.2,4.54,2.2,1.28,4.17,2.78,6.07,4.23,1.57,1.19,3.19,2.43,4.94,3.54,4.74,3.02,9.02,4.9,12.79,5.52.24.08.48.32.44.61s-.3.49-.59.47c-3.27-.3-6.73-.69-10.14-1.45-.6-.13-1.19-.28-1.78-.44h0ZM154.58,187.92c-1.78-1.13-3.42-2.38-5.01-3.59-1.88-1.43-3.82-2.9-5.96-4.16-2.83-1.65-5.47-2.83-7.99-3.56,1.12.72,2.26,1.62,3.46,2.73.84.78,1.64,1.6,2.45,2.42,1.3,1.33,2.64,2.69,4.11,3.85,2.8,2.22,6.34,3.91,10.54,5.04,1.89.52,3.82.88,5.73,1.17-2.29-.96-4.72-2.26-7.32-3.91h0Z"/>
        <path class="cls-141" d="M230.48,121.79c.1.02.2,0,.27-.09,3.26-3.95,8.89-6.71,13.85-9.14,2.5-1.22,4.86-2.38,6.58-3.54.12-.08.16-.25.07-.37-.08-.12-.25-.16-.37-.07-1.7,1.14-4.04,2.29-6.52,3.51-5.01,2.45-10.7,5.24-14.03,9.28-.1.11-.08.29.04.38.03.03.07.05.11.06v-.02Z"/>
        <path class="cls-137" d="M220.98,129.3c-.05-4.91-3.42-12.05-5.42-15.87-1.66-3.16-4.02-10.31-4.78-13.94-.02-.12.03-.24.14-.3s.24-.04.32.05c3.68,3.82,7.84,8.15,9.68,13.58,1.82,5.37,1.18,11.28.61,16.49-.02.14-.14.25-.28.24h-.05c-.12-.03-.21-.13-.21-.26h-.01ZM216.04,113.18c1.7,3.23,4.36,8.83,5.22,13.52.43-4.48.64-9.3-.85-13.7-1.69-4.98-5.42-9.07-8.88-12.68.92,3.78,3.01,9.98,4.51,12.86h0Z"/>
        <path class="cls-149" d="M233.51,107.85c-.87-1.79-2.17-3.45-3.43-5.06-1.24-1.59-2.53-3.23-3.37-4.97-.58-1.2-.94-2.55-1.34-3.98-.55-2-1.11-4.07-2.3-5.97-.06-.1-.05-.24.03-.33s.21-.11.32-.06c3.74,1.86,5.72,5.89,7.03,9.2s2.27,6.57,3.28,10.01l.28.96c.04.14-.03.28-.16.33-.05.02-.11.02-.16,0-.08-.02-.15-.07-.18-.14h0ZM225.89,93.69c.39,1.41.75,2.73,1.3,3.88.81,1.69,2.03,3.24,3.31,4.88.8,1.02,1.62,2.07,2.34,3.16-.88-2.99-1.76-5.84-2.91-8.74-1.17-2.95-2.88-6.49-5.92-8.43.9,1.72,1.39,3.51,1.87,5.25h.01Z"/>
        <path class="cls-26" d="M236.97,85.8c-7.2-5.43-13.29-12.36-19.18-19.06-1.44-1.64-2.86-3.25-4.26-4.8-.1-.11-.09-.27,0-.37.1-.1.27-.11.37,0,1.78,1.62,3.66,2.65,5.65,3.73,1.39.76,2.83,1.54,4.25,2.56,2.94,2.09,6.6,5,8.82,8.91.53.94,1,1.99,1.49,3.11.9,2.04,1.83,4.14,3.19,5.53.1.1.1.26,0,.37-.07.08-.17.11-.26.08-.04,0-.07-.02-.1-.05h.02ZM218.2,66.38c5.4,6.15,10.98,12.51,17.42,17.69-.76-1.21-1.38-2.61-1.98-3.98-.49-1.11-.95-2.15-1.47-3.06-2.16-3.82-5.77-6.68-8.67-8.74-1.4-.99-2.82-1.77-4.19-2.52-1.17-.64-2.3-1.26-3.41-1.99.76.86,1.52,1.73,2.3,2.61h0Z"/>
        <path class="cls-100" d="M238.35,101.93c-.12-.08-.16-.24-.09-.36,4.42-7.57,9-14.77,16.33-19.7,3.92-2.64,8.31-4.93,12.34-6.46.13-.06.28,0,.33.13.06.12.03.27-.08.35-3.32,2.32-5.55,5.01-7.7,7.61-1.77,2.14-3.6,4.36-6,6.29-1.53,1.23-3.19,2.37-4.96,3.58-3.66,2.51-7.44,5.1-9.81,8.49-.07.09-.18.13-.28.11-.03,0-.06-.02-.09-.04h0ZM254.9,82.32c-6.33,4.26-10.6,10.26-14.51,16.72,2.27-2.29,5.09-4.23,7.84-6.12,1.75-1.2,3.41-2.34,4.92-3.56,2.36-1.9,4.09-3.99,5.92-6.21,1.81-2.18,3.66-4.43,6.18-6.48-3.45,1.47-7.06,3.43-10.35,5.64h0Z"/>
        <path class="cls-45" d="M242.99,68.45c.14.03.28-.05.32-.18,1.7-5.52,4.09-8.76,6.39-11.89.71-.97,1.46-1.98,2.16-3.02.08-.13.05-.29-.07-.38-.13-.08-.3-.05-.38.07-.69,1.04-1.43,2.04-2.14,3.01-2.33,3.17-4.74,6.44-6.47,12.05-.04.14.04.3.18.34h.02,0Z"/>
        <path class="cls-85" d="M223.22,27.56h.15c.14-.05.21-.2.16-.35-1.47-4.09-1.62-9.95-1.77-16.16-.05-2-.1-4.07-.2-6.08,0-.15-.14-.27-.28-.26-.15,0-.27.14-.26.28.1,2.01.15,4.07.2,6.07.15,6.25.3,12.16,1.8,16.33.03.09.11.15.19.17h0Z"/>
        <path class="cls-76" d="M225.28,40.64c.1.02.21-.01.28-.1.09-.12.06-.29-.06-.38-7.32-5.41-12.78-7.56-18.06-9.65-2.44-.96-4.95-1.95-7.6-3.25-.12-.07-.29-.01-.36.12-.07.13,0,.3.12.36,2.67,1.31,5.2,2.31,7.65,3.27,5.25,2.07,10.67,4.21,17.93,9.58.03.02.07.04.1.04h0Z"/>
        <path class="cls-84" d="M238.08,49.14h.02c.15.03.28-.08.3-.23.67-4.85,1.87-9.35,3.14-14.11,1.37-5.14,2.78-10.46,3.47-16.25.02-.15-.11-.25-.24-.3-.15-.02-.29.09-.3.24-.69,5.76-2.1,11.05-3.46,16.17-1.27,4.78-2.47,9.3-3.15,14.18-.02.14.07.27.21.3h0Z"/>
        <path class="cls-21" d="M234.59,58.98c.09.02.19,0,.26-.08.1-.11.09-.28-.02-.38-4.66-4.32-8.71-5.96-12.28-7.4-2.19-.89-4.27-1.73-6.2-3.09-.12-.08-.29-.06-.38.07-.08.12-.05.29.07.38,1.99,1.39,4.09,2.24,6.31,3.14,3.52,1.43,7.52,3.05,12.11,7.3.04.03.08.05.12.06h.01Z"/>
        <path class="cls-81" d="M214.72,20.12c-9-4.7-16.38-10.99-21.94-18.72-.07-.11-.07-.25.02-.34.09-.1.24-.12.34-.05,1.41.87,2.81,1.62,4.15,2.33,5.16,2.75,10.5,5.6,17.77,16.38.07.1.06.24-.02.33-.07.07-.17.1-.26.08-.02,0-.05-.01-.07-.02h.01ZM214,19.12c-6.86-9.93-11.77-12.54-16.96-15.3-.99-.52-2-1.06-3.02-1.66,5.2,6.89,11.92,12.59,19.98,16.96Z"/>
        <g>
          <g>
            <path class="cls-22" d="M169.47,158.34c.13.03.26-.03.31-.16,1.85-4.37,2.71-9.2,2.31-12.91-.02-.15-.15-.26-.3-.24-.15.02-.26.15-.24.3.39,3.62-.46,8.35-2.27,12.64-.06.14,0,.3.14.36,0,0,.03,0,.05,0h0Z"/>
            <path class="cls-70" d="M171.72,154.9h.15c3.42-1.28,6.39-3.85,8.14-7.05.07-.13.03-.3-.11-.37-.14-.08-.3-.02-.37.11-1.69,3.09-4.56,5.57-7.86,6.8-.14.05-.21.21-.16.35.03.09.11.15.2.17h.01Z"/>
            <path class="cls-55" d="M158.45,169.14c.1.02.21,0,.27-.09,3.04-3.83,4.88-8.62,5.17-13.51,0-.15-.1-.26-.26-.29-.15,0-.28.11-.28.25-.29,4.77-2.08,9.46-5.05,13.2-.09.12-.07.29.04.38.03.03.07.04.11.05h0Z"/>
            <path class="cls-138" d="M164.11,164.9h.07c3.29-.15,6.47-1.21,9.2-3.07.12-.09.15-.25.07-.38-.09-.12-.26-.15-.38-.07-2.6,1.78-5.77,2.83-8.91,2.97-.15,0-.27.13-.26.28,0,.12.1.23.21.25v.02Z"/>
            <path class="cls-161" d="M145.48,174.43c.06,0,.12,0,.18-.02,4.37-2.08,8.38-4.62,9.53-12.66.02-.15-.08-.28-.23-.31-.15-.02-.29.08-.31.23-1.11,7.78-5,10.24-9.23,12.25-.14.06-.19.23-.13.36.04.08.11.13.18.15h.01Z"/>
            <path class="cls-24" d="M153.33,171.93h0c3.19.59,5.95.36,8.43-.68.14-.06.2-.21.14-.35s-.21-.2-.35-.14c-2.39,1-5.05,1.21-8.13.65-.15-.03-.29.07-.31.22-.03.14.06.28.21.31h0Z"/>
            <path class="cls-124" d="M143.02,175h.12c10.04-2.14,17.28-5.95,22.77-11.99,6.16-6.77,11.03-16.49,12.71-25.35.03-.15-.06-.28-.21-.31h0c-.15-.03-.29.07-.32.21-1.66,8.77-6.48,18.39-12.58,25.09-5.42,5.96-12.56,9.71-22.49,11.82-.15.03-.24.17-.21.32.02.11.11.18.21.21h0Z"/>
            <path class="cls-147" d="M137.49,175.3s.08,0,.13,0c3.83-.96,6.66-2.75,8.03-8.3.04-.15-.05-.29-.2-.33-.15-.05-.29.05-.33.2-1.31,5.31-3.89,6.96-7.64,7.91-.15.03-.23.18-.2.33.03.1.11.18.2.2h0Z"/>
          </g>
          <g>
            <circle class="cls-96" cx="178.6" cy="136.53" r="2.03"/>
            <circle class="cls-118" cx="174.43" cy="160.69" r="2.03"/>
            <path class="cls-130" d="M169.37,143.13c-.25,1.09.44,2.18,1.53,2.42s2.18-.44,2.42-1.53-.44-2.18-1.53-2.42-2.18.44-2.42,1.53Z"/>
            <path class="cls-108" d="M152.84,159.53c-.25,1.09.44,2.18,1.53,2.42s2.18-.44,2.42-1.53-.44-2.18-1.53-2.42-2.18.44-2.42,1.53Z"/>
            <circle class="cls-8" cx="180.86" cy="146.52" r="2.14"/>
            <circle class="cls-122" cx="163.67" cy="153.52" r="2.14"/>
            <circle class="cls-65" cx="145.58" cy="165.06" r="2.14"/>
            <circle class="cls-99" cx="163.25" cy="170.31" r="2.14"/>
          </g>
        </g>
        <g>
          <g>
            <path class="cls-153" d="M227.39,37.74c.07.02.15,0,.22-.04.12-.09.15-.25.06-.38-5.03-7.09-12.36-12.46-20.65-15.11h-.02c-.14-.04-.27.04-.32.18s.03.3.18.34c8.17,2.61,15.41,7.91,20.37,14.9.04.06.1.09.16.11h0Z"/>
            <path class="cls-128" d="M205.86,22.12c-.1.44.18.89.62.99s.89-.18.99-.62-.18-.89-.62-.99-.89.18-.99.62Z"/>
            <path class="cls-47" d="M210.36,23.92c-.13.58.23,1.16.82,1.29s1.16-.23,1.29-.82-.23-1.16-.82-1.29-1.16.24-1.29.82Z"/>
            <path class="cls-142" d="M215.23,26.71c-.14.64.26,1.28.9,1.43s1.28-.26,1.43-.9-.26-1.28-.9-1.43-1.28.26-1.43.9Z"/>
          </g>
          <g>
            <path class="cls-158" d="M233.16,51.07s.07.01.11,0c.15-.03.24-.17.21-.32-2.81-13.68-4.44-24.37.25-37.36.05-.14-.02-.3-.16-.35h-.03c-.13-.04-.27.03-.31.16-4.74,13.13-3.1,23.89-.27,37.65.02.11.1.19.21.21h-.01Z"/>
            <path class="cls-42" d="M232.8,12.97c-.1.45.18.89.62.99s.89-.18.99-.62-.18-.89-.62-.99-.89.18-.99.62Z"/>
            <circle class="cls-145" cx="231.97" cy="18.4" r="1.08"/>
            <path class="cls-2" d="M229.85,23.28c-.14.64.26,1.28.9,1.43s1.28-.26,1.43-.9-.26-1.28-.9-1.43-1.28.26-1.43.9Z"/>
            <circle class="cls-134" cx="230.55" cy="29.38" r="1.34"/>
            <path class="cls-121" d="M229.53,35.35c-.16.72.29,1.43,1.01,1.6s1.43-.29,1.6-1.01-.29-1.43-1.01-1.6-1.43.29-1.6,1.01Z"/>
          </g>
          <g>
            <path class="cls-98" d="M225.58,130.54c.13.03.26-.04.31-.17,2.68-7.16,3.14-15.18,1.29-22.6-.03-.15-.19-.23-.33-.2-.15.03-.23.18-.2.33,1.82,7.31,1.37,15.23-1.27,22.28-.05.14.02.3.16.35,0,0,.02,0,.04,0h0Z"/>
            <path class="cls-48" d="M226.11,107.65c-.1.45.18.89.62.99s.89-.18.99-.62-.18-.89-.62-.99-.89.18-.99.62Z"/>
            <path class="cls-163" d="M226.74,112.1c-.13.58.23,1.16.82,1.29s1.16-.23,1.29-.82-.23-1.16-.82-1.29-1.16.23-1.29.82Z"/>
            <path class="cls-101" d="M226.9,117.94c-.14.64.26,1.28.9,1.43s1.28-.26,1.43-.9-.26-1.28-.9-1.43-1.28.26-1.43.9Z"/>
          </g>
          <g>
            <path class="cls-61" d="M190.1,164.38c.07.02.14,0,.21-.04,7.02-4.61,9.4-10.49,11.14-19.08.03-.14-.06-.28-.2-.32h0c-.15-.03-.29.06-.32.21-1.71,8.45-4.05,14.23-10.91,18.74-.12.08-.16.25-.08.38.04.06.1.1.17.11h0Z"/>
            <path class="cls-159" d="M200.32,144.87c-.1.45.18.89.62.99s.89-.18.99-.62-.18-.89-.62-.99-.89.18-.99.62Z"/>
            <path class="cls-136" d="M199.1,149.36c-.13.58.24,1.16.82,1.29s1.16-.23,1.29-.82-.23-1.16-.82-1.29-1.16.23-1.29.82Z"/>
            <circle class="cls-102" cx="198.37" cy="154.54" r="1.19"/>
          </g>
          <g>
            <path class="cls-95" d="M238.04,76.26h.14c.15-.04.23-.19.18-.34-1.52-5.07-4.29-9.74-8-13.51-.11-.11-.28-.11-.38,0-.11.1-.11.28,0,.38,3.65,3.7,6.37,8.3,7.87,13.28.03.1.11.16.2.19h0Z"/>
            <path class="cls-151" d="M229.14,62.09c-.1.45.18.89.62.99s.89-.18.99-.62-.18-.89-.62-.99-.89.18-.99.62Z"/>
            <path class="cls-94" d="M231.57,65.11c-.13.58.23,1.16.82,1.29s1.16-.23,1.29-.82-.23-1.16-.82-1.29-1.16.23-1.29.82Z"/>
            <path class="cls-1" d="M234.03,68.89c-.14.64.26,1.28.9,1.43s1.28-.26,1.43-.9-.26-1.28-.9-1.43-1.28.26-1.43.9Z"/>
          </g>
          <g>
            <path class="cls-80" d="M237.63,93.95c.13.03.27-.04.32-.17,3.79-10.9,10.22-20.85,18.6-28.78.11-.1.11-.27.01-.38-.1-.11-.27-.12-.38-.01-8.44,7.99-14.92,18.01-18.74,28.99-.05.14.03.3.17.35h.03,0Z"/>
            <path class="cls-116" d="M255.67,64.5c-.1.44.18.89.62.99s.89-.18.99-.62-.18-.89-.62-.99-.89.18-.99.62Z"/>
            <path class="cls-97" d="M251.98,67.82c-.13.58.23,1.16.82,1.29s1.16-.23,1.29-.82-.24-1.16-.82-1.29-1.16.23-1.29.82Z"/>
            <path class="cls-5" d="M248.59,71.65c-.14.64.26,1.28.9,1.43s1.28-.26,1.43-.9-.26-1.28-.9-1.43-1.28.26-1.43.9Z"/>
            <circle class="cls-131" cx="246.52" cy="76.17" r="1.34"/>
            <circle class="cls-32" cx="243.53" cy="80.83" r="1.34"/>
          </g>
          <g>
            <path class="cls-110" d="M223.65,134.47c.09.02.18,0,.25-.07,6.94-6.83,16.02-11.62,25.57-13.5.15-.03.24-.17.22-.32-.03-.15-.17-.25-.32-.21-9.65,1.9-18.83,6.75-25.85,13.65-.11.1-.11.27,0,.38.04.04.08.06.13.07h0Z"/>
            <path class="cls-143" d="M248.71,120.55c-.1.44.18.89.62.99s.89-.18.99-.62-.18-.89-.62-.99-.89.18-.99.62Z"/>
            <circle class="cls-113" cx="244.77" cy="121.71" r="1.08"/>
            <circle class="cls-18" cx="239.96" cy="123.52" r="1.19"/>
            <circle class="cls-64" cx="235.31" cy="125.59" r="1.34"/>
            <circle class="cls-69" cx="230.57" cy="128.4" r="1.34"/>
          </g>
        </g>
        <path class="cls-12" d="M189.04,159.3c2.27-5.3,2.56-8.76,2.56-8.76,0,0-1.18,4.51-3.23,8.65-1.28,2.55-2.96,5.64-5.04,7.6-.07.06-.02.15,0,.23-1.86.78-3.8,1.39-5.73,1.8,2.71-1.59,5.59-3.38,6.77-6.3,1.07-2.67.47-5.71,1-8.53.65-3.47,2.93-6.38,5.05-9.21,2.12-2.83,4.21-5.95,4.36-9.48.65,4.87,1.19,9.5.7,14.4-.49,4.89-2.23,9.82-5.73,13.26-1.58,1.55-2.95,2.51-5,3.46,1.67-1.78,3.22-4.59,4.31-7.12h-.02Z"/>
        <path class="cls-54" d="M215.26,20.67c-.43-.26-1.39-.55-2.59-.91-4.13-1.24-11.82-3.54-15.74-10.42-1.84-3.24-5.06-8.45-5.09-8.51-.12-.2-.1-.45.04-.63s.4-.25.61-.16c1.43.54,2.9.86,4.47,1.2,3.4.77,6.91,1.51,10.21,4.6,4.5,4.21,5.8,7.42,6.96,10.26.54,1.33,1.06,2.59,1.86,3.8.14.21.12.49-.06.68-.14.14-.33.2-.51.16-.06-.01-.11-.04-.16-.07h0ZM196.73,2.3c-1.06-.22-2.13-.47-3.19-.78,1.08,1.76,3.05,5,4.34,7.28,3.69,6.51,10.83,8.65,15.1,9.92.48.14.92.27,1.3.4-.43-.85-.79-1.71-1.15-2.61-1.11-2.73-2.37-5.83-6.7-9.88-2.79-2.61-5.81-3.46-8.77-4.13l-.93-.21h0Z"/>
        <path class="cls-83" d="M224.44,33.28c-.35-.77-.64-1.65-.84-2.56-.32-.95-.69-2.01-1-2.82-.21-.53-.58-1.19-1-1.94-1.13-1.99-2.67-4.7-3.2-8.57-.73-5.35,2.15-13.71,2.26-14.06.08-.24.32-.39.57-.36.29.04.45.22.48.47.22,1.62,1.14,3.47,2.11,5.43,1.26,2.54,2.56,5.17,2.51,7.66-.06,2.87-.76,5.34-1.33,7.33-.27.97-.51,1.8-.6,2.45-.17,1.22-.07,2.73.25,4.15.44,1.31.79,2.42.8,2.44.09.27-.05.56-.32.67-.1.04-.21.05-.31.02-.16-.04-.3-.14-.37-.3h0ZM219.48,17.23c.5,3.67,1.98,6.28,3.06,8.19.27.48.52.93.73,1.33,0-.21.04-.41.06-.6.1-.72.35-1.59.63-2.6.55-1.93,1.23-4.32,1.29-7.05.04-2.22-1.2-4.73-2.4-7.16-.66-1.34-1.3-2.62-1.73-3.86-.81,2.76-2.15,8.1-1.65,11.75h0Z"/>
        <path class="cls-111" d="M230.48,45.03c-4.67-3.94-5.44-4.06-10.43-4.77-.87-.13-1.86-.27-3.02-.46-7.5-1.19-9.55-3.44-12.15-6.3l-.6-.66c-2.87-3.12-5.83-5.69-5.86-5.71-.19-.16-.24-.43-.13-.66.11-.22.36-.33.6-.28h0c1.61.4,3.4.55,5.28.71,3.19.28,6.81.58,10.47,2.24,4.48,2.04,6.74,5.33,8.1,7.3.37.54.69,1,.92,1.22.35.35.96.82,1.72,1.41,1.57,1.21,3.72,2.87,5.84,5.16.19.21.19.54,0,.74-.14.14-.33.19-.51.15-.08-.02-.16-.06-.23-.11v.02ZM224.94,40.1c-.07-.05-.14-.11-.21-.16-.79-.61-1.42-1.1-1.83-1.5-.3-.3-.63-.78-1.04-1.38-1.29-1.88-3.45-5.01-7.66-6.93-3.49-1.58-6.86-1.87-10.11-2.15-1.22-.1-2.39-.2-3.52-.37,1.15,1.07,2.84,2.69,4.5,4.49l.61.67c2.55,2.8,4.38,4.82,11.52,5.96,1.15.18,2.14.33,3.01.45,1.46.21,2.58.37,3.54.59.42.09.81.2,1.19.32h0Z"/>
        <path class="cls-77" d="M235.48,60.53h0c0-.07.04-.32.1-.73.24-1.82.91-6.67,1.62-10.45.09-1.52-.21-2.56-.59-3.89-.59-2.08-1.33-4.66-.83-10.24.59-6.5,3.41-10.45,5.9-13.94,1.05-1.47,2.04-2.86,2.83-4.35.12-.23.43-.36.64-.26.25.08.41.33.37.59-.12.88.25,2.55.67,4.48.93,4.22,2.21,10.01.54,15.57-1.58,5.28-3.9,7.66-5.59,9.4-.96.99-1.72,1.77-2.1,2.78-1.42,3.77-2.22,9.13-2.43,10.72-.04.26-.06.42-.06.46h0c-.04.3-.31.51-.6.47h-.05c-.27-.06-.45-.32-.42-.59v-.02ZM242.56,21.91c-2.53,3.54-5.14,7.19-5.7,13.4-.48,5.38.22,7.86.79,9.85.32,1.11.6,2.09.64,3.37.49-.95,1.24-1.72,2.08-2.59,1.7-1.75,3.82-3.93,5.33-8.96,1.58-5.29.34-10.92-.56-15.02-.25-1.11-.46-2.1-.59-2.95-.61.97-1.29,1.91-1.98,2.89h-.01Z"/>
        <path class="cls-25" d="M235.71,62.63c-1.08-2.19-2.52-3.71-4.06-4.27-.58-.21-1.19-.21-1.97-.23-1.46-.02-3.47-.04-6.29-1.56-4.25-2.28-8.01-8.07-8.17-8.31-.1-.16-.11-.37-.02-.54s.27-.28.47-.29c.27-.01,6.7-.15,11.79,2.39,5.82,2.91,9.12,12,9.26,12.39.1.27-.03.57-.3.68-.11.05-.22.06-.33.03-.15-.03-.29-.14-.37-.29h0ZM232.03,57.34c.58.21,1.14.53,1.68.95-1.5-2.74-3.8-6.04-6.74-7.5-3.69-1.84-8.25-2.2-10.25-2.27,1.21,1.69,4.12,5.45,7.19,7.1,2.59,1.39,4.37,1.41,5.8,1.43.66.01,1.26.02,1.83.15.16.04.33.08.49.14Z"/>
        <path class="cls-140" d="M237.72,87.13c.07-5.57,2.1-11.48,3.45-15.39.54-1.57.97-2.81,1.02-3.34s-.09-1.14-.24-1.83c-.35-1.57-.84-3.72.54-6.78,1.98-4.4,9.18-7.53,9.49-7.66.2-.09.44-.03.6.12.16.17.2.41.1.61-.5,1.03-.91,2.59-1.34,4.25-.54,2.05-1.15,4.37-2.09,6.41-1.54,3.36-4.48,4.63-5.33,4.94-1.67,3.45-4.49,12.45-5.1,18.72-.03.29-.28.5-.57.49-.03,0-.06,0-.09,0-.25-.06-.43-.28-.42-.54h-.02ZM243.47,60.24c-1.23,2.74-.83,4.52-.47,6.1.1.42.19.83.24,1.23.04-.02.08-.04.13-.06.03,0,3.32-1.02,4.89-4.43.9-1.96,1.5-4.23,2.03-6.23.31-1.16.59-2.22.89-3.13-2.12,1.08-6.36,3.54-7.7,6.52h-.01Z"/>
        <path class="cls-50" d="M237.72,88.25c-1.06-1.86-2.82-3.56-5.4-5.18-1.03-.65-2.12-1.25-3.18-1.84-1.19-.66-2.43-1.34-3.6-2.1-6.21-4.04-10.8-10.47-12.61-17.65-.05-.18,0-.38.14-.52.14-.13.31-.19.51-.14,2.81.71,6.97,1.84,10.72,3.56,3.88,1.77,6.83,4.11,8.78,6.94,2.1,3.06,2.98,6.73,3.84,10.29.5,2.07,1.02,4.21,1.76,6.18.1.26-.02.56-.28.68-.11.05-.24.06-.35.04-.14-.03-.27-.12-.35-.26h.02ZM226.13,78.22c1.14.74,2.36,1.41,3.53,2.06,1.07.59,2.17,1.2,3.23,1.87,1.53.96,2.8,1.96,3.82,3.01-.31-1.1-.57-2.2-.83-3.29-.83-3.46-1.7-7.04-3.68-9.93-1.83-2.68-4.64-4.89-8.33-6.57-3.29-1.5-6.93-2.56-9.64-3.26,1.88,6.56,6.18,12.39,11.91,16.12h-.01Z"/>
        <path class="cls-144" d="M234.78,108.6c-.27-.11-.4-.42-.3-.69.41-1.11.91-2.18,1.51-3.2.52-1.1,1.05-2.19,1.57-3.29,1.03-2.15,2.06-4.29,3.07-6.44,2.52-5.35,5.65-12,11.28-15.79,4.32-2.9,9.54-3.61,14.59-4.29l1.19-.16c.24-.04.46.08.56.29s.06.46-.1.63c-2.17,2.19-3.77,5-5.31,7.71-1.99,3.5-4.05,7.12-7.38,9.53-2.01,1.45-4.33,2.34-6.57,3.21-1.58.61-3.22,1.24-4.7,2.06-2.97,1.63-5.5,4.11-7.23,7.04-.49,1.04-.99,2.08-1.48,3.11-.11.23-.37.35-.61.3-.03,0-.06-.02-.09-.03h0ZM252.52,80.09c-5.38,3.63-8.44,10.13-10.9,15.35-.82,1.73-1.64,3.46-2.47,5.19,1.34-1.34,2.86-2.5,4.52-3.41,1.55-.85,3.21-1.49,4.83-2.12,2.28-.88,4.43-1.72,6.32-3.08,3.14-2.27,5.05-5.63,7.08-9.19,1.33-2.34,2.7-4.74,4.46-6.82-4.84.65-9.82,1.36-13.84,4.08Z"/>
        <path class="cls-129" d="M233.42,112.46c-.29-.08-.46-.37-.39-.66.54-2.08-.14-4.49-1.69-5.99-.68-.66-1.51-1.16-2.38-1.68-1.05-.63-2.14-1.29-2.97-2.26-1.44-1.67-2.43-4.44-2.78-6.45-.27-1.57-.32-2.73-.36-3.85-.06-1.33-.11-2.58-.55-4.33-.05-.19,0-.38.14-.52.13-.14.28-.22.52-.14,3.14.83,7.11,3.02,8.86,6.69,1.76,3.71,1.97,5.79,2.2,8.2.05.53.11,1.08.18,1.67l.15,1.18c.35,2.62.6,4.5-.27,7.75h0c-.08.29-.36.46-.64.39h-.02,0ZM223.94,91.52c.05,1.09.09,2.21.35,3.71.32,1.86,1.23,4.41,2.53,5.92.73.84,1.69,1.42,2.71,2.04.88.53,1.8,1.09,2.57,1.83.61.59,1.11,1.29,1.47,2.05-.05-.83-.16-1.66-.29-2.61l-.15-1.19c-.07-.6-.13-1.16-.18-1.7-.24-2.4-.42-4.3-2.1-7.84-1.43-3.01-4.56-4.94-7.29-5.85.28,1.4.33,2.49.38,3.64h0Z"/>
        <path class="cls-17" d="M229.04,124.31c-.25-.14-.35-.46-.21-.72,1.74-3.38,3.76-6.9,6.72-9.71,3.84-3.65,9.49-5.7,16.35-5.91.23,0,.43.13.52.34.09.21.03.45-.14.6-1.29,1.18-2.37,2.62-3.41,4.02-.47.62-.93,1.25-1.42,1.85-2.11,2.64-4.13,4.14-6.32,4.74-1.05.29-2.14.35-3.18.41-.84.05-1.64.09-2.42.25-2.34.45-4.5,1.93-5.76,3.95-.12.2-.36.29-.58.24-.05,0-.1-.03-.15-.06h0ZM236.28,114.67c-1.82,1.73-3.26,3.7-4.61,5.97,1.1-.75,2.35-1.28,3.65-1.53.86-.17,1.73-.22,2.57-.26,1.04-.06,2.02-.12,2.96-.37,1.97-.53,3.8-1.92,5.76-4.37.48-.6.93-1.21,1.39-1.82.8-1.07,1.61-2.16,2.53-3.16-5.96.42-10.87,2.32-14.25,5.54Z"/>
        <path class="cls-105" d="M221,137.28c-.62-1.26-.67-3.21-.57-5.74.08-2.03-.19-4.03-.79-5.93-.58-1.8-1.85-3.22-3.2-4.73-.59-.66-1.21-1.35-1.75-2.07-1.98-2.61-3.3-5.91-3.93-9.83-.56-3.5-.43-6.77-.29-10.24,0-.2.12-.37.29-.46s.38-.08.54.03c2.82,1.83,5.73,3.73,8.2,6.15,2.79,2.73,4.6,5.81,5.24,8.9.86,4.13-.3,8.42-1.31,12.2l-.34,1.24c-.95,3.46-1.85,6.72-1.08,10.12.06.27-.09.54-.35.63-.1.04-.2.04-.3.02-.15-.03-.29-.14-.37-.29h0ZM211.83,108.81c.6,3.74,1.85,6.89,3.72,9.35.52.69,1.12,1.35,1.7,2,1.36,1.53,2.77,3.11,3.42,5.12.37,1.16.63,2.36.76,3.58.2-.79.41-1.57.63-2.34l.33-1.23c.99-3.67,2.1-7.82,1.3-11.7-.59-2.88-2.3-5.77-4.94-8.35-2.16-2.12-4.71-3.85-7.23-5.5-.12,3.06-.18,6,.31,9.07Z"/>
        <path class="cls-57" d="M237.03,136.15c-4.32.3-9.61-1.23-15.29,1.62,2.72-4.22,7.66-6.93,12.68-6.94,5.78-.02,11.35,3.26,17.08,2.46-2.79,2.19-5.55,4.29-8.73,5.85-3.18,1.56-6.69,2.57-10.23,2.44-4.35-.16-8.78-2-12.94-.72,0,0,.61-1.1,1.09-1.56,3.42-3.13,13.39-1.58,16.35-3.14h-.01Z"/>
        <path class="cls-10" d="M205.28,155.01c4.75-2.59,6.78-2.92,10.34-2.43,1.97.27,3.83,1.14,5.79,1.45,2.16.34,4.39,0,6.47-.7,2.08-.68,4.04-1.69,5.98-2.69-2.14-.58-4.03-1.64-6.16-2.4s-4.39-1.39-6.63-1.11c-2.85.36-5.54,2.57-8.21,3.62-1.39.55-2.85.91-4.22,1.51-1.37.6-2.63,1.44-3.37,2.74h.01Z"/>
        <path class="cls-39" d="M199.13,160.03c-3.08.56-4.88,1.55-5.72,2.94,3.22-2.06,7.16-1.68,10.85-.7s6.57,2.78,11.35,4.29c6.75,2.13,13.49,2,20.57,2.28-4.98-2.93-6.74-7.06-14.6-10.45-3.54-1.52-7.6-2.15-11.44-1.82-3.9.33-5.03,1.19-8.57,2.61,3.66-.2,6.95-.06,10.65.65,3.99.76,6.68,1.93,9.01,3.05-1.96-.65-6.16-1.72-9.06-2.11-8.21-1.08-11.63-.95-13.04-.74h0Z"/>
        <path class="cls-44" d="M175.71,170.17c4.47-.53,9.2.06,13.04,2.41,1.74,1.06,3.26,2.45,5.04,3.46,2.2,1.24,4.69,1.84,7.09,2.61s4.83,1.78,6.54,3.64c-1.46-3.76-3.1-7.54-6.06-10.27-3.12-2.87-7.67-4.1-11.81-3.2,4.72,1.41,6.63,3.67,10.72,6.07-4.19-1.38-7.43-4.57-11.66-5.61-4.23-1.04-8.83-.68-12.89.89h0Z"/>
        <path class="cls-62" d="M202.85,155.9c1.08-1.82,2.17-3.66,2.88-5.67.7-2,.99-4.21.44-6.26-.57-2.12-1.99-3.93-2.56-6.06-1.26-4.75,2.03-9.67,1.43-14.54,2.34,3.38,4.46,6.77,5.56,10.73,1.1,3.96.71,8.59-2.03,11.65,1.22-4.03.79-8.34-.95-12.18.74,3.89,1.56,5.77.29,12.04-.79,3.89-1.86,8.34-5.07,10.28h.01Z"/>
        <path class="cls-3" d="M129.49,175.46s.89.13,2.56.37c1.73.14,4.26.32,7.42.3,3.17-.02,7.02-.12,11.41-.6,2.2-.16,4.53-.49,6.97-.89,2.46-.32,5.01-.8,7.65-1.44,2.67-.53,5.41-1.21,8.2-2.12,2.83-.77,5.7-1.72,8.57-2.94,1.45-.57,2.92-1.14,4.41-1.73,1.43-.72,2.87-1.44,4.33-2.18,1.46-.74,2.93-1.49,4.42-2.25,1.4-.91,2.82-1.82,4.25-2.74,1.41-.94,2.9-1.8,4.28-2.84,1.33-1.1,2.67-2.21,4.02-3.32,1.32-1.15,2.78-2.16,4-3.44l3.64-3.9c1.18-1.34,2.54-2.54,3.58-4.01l3.12-4.41c1.01-1.49,2.15-2.91,3.07-4.47l2.5-4.83,2.49-4.83c.73-1.65,1.24-3.39,1.87-5.08,1.08-3.4,2.68-6.76,3.29-10.25,1.73-6.83,2.9-13.84,3.21-20.61.18-3.39.32-6.72.04-9.99-.09-1.63-.18-3.24-.27-4.84-.22-1.58-.43-3.14-.65-4.68-.82-6.17-2.44-11.85-4.1-17.01-1.84-5.11-3.82-9.68-5.91-13.56-2.07-3.89-4.09-7.17-5.94-9.74-3.63-5.2-6.23-7.78-6.23-7.78-.2-.2-.53-.2-.73,0s-.2.53,0,.73c0,0,2.52,2.52,6.1,7.66,1.82,2.54,3.8,5.79,5.84,9.64,2.06,3.84,4,8.37,5.81,13.42,1.63,5.1,3.21,10.72,4.01,16.82.21,1.52.42,3.06.63,4.63.08,1.57.17,3.17.25,4.78.27,3.22.12,6.51-.06,9.86-.32,6.69-1.47,13.5-3.23,20.39-.63,3.52-2.18,6.66-3.27,10.08-.63,1.66-1.13,3.38-1.86,5.01l-2.47,4.75-2.47,4.75c-.9,1.53-2.03,2.92-3.03,4.39l-3.08,4.33c-1.02,1.44-2.37,2.61-3.53,3.93l-3.59,3.82c-1.2,1.25-2.64,2.25-3.94,3.37-1.33,1.09-2.65,2.18-3.96,3.26-1.36,1.01-2.83,1.85-4.22,2.78-1.41.9-2.8,1.8-4.18,2.69-1.47.74-2.92,1.48-4.36,2.2s-2.87,1.43-4.27,2.13c-1.47.57-2.92,1.13-4.35,1.69-2.83,1.19-5.67,2.12-8.46,2.88-2.75.89-5.46,1.56-8.1,2.07-2.61.62-5.13,1.09-7.56,1.4-2.41.39-4.71.71-6.88.86-4.33.46-8.14.55-11.25.56-3.14,0-5.54-.17-7.17-.3-1.67-.24-2.55-.37-2.55-.37h-.03c-.44-.07-.86.24-.92.68-.06.44.24.86.69.92h0Z"/>
      </g>
    </g>
    <g>
      <path class="cls-160" d="M77.89,89.7c.47.07.93.19,1.4.34s.9.31,1.31.48v1.07h-9.25v-1.07c.83-.41,1.6-.69,2.31-.82v-15.96c-.38-.08-.77-.18-1.17-.31-.4-.13-.79-.3-1.14-.51v-1.07h14.43c0,.45-.01.97-.03,1.55-.02.58-.05,1.18-.08,1.8-.04.62-.09,1.23-.17,1.82-.08.59-.15,1.12-.23,1.59h-1.16l-1.78-4.93h-4.45v16.01Z"/>
      <path class="cls-160" d="M93.45,97.22h-7.78v-1.07c.64-.3,1.26-.53,1.86-.68v-16.01l-1.86-.23v-1.07c.3-.13.67-.25,1.11-.37.44-.11.9-.21,1.37-.3.47-.09.93-.16,1.37-.21.44-.06.81-.1,1.11-.14h.96v3.16h.03c.32-.9.82-1.65,1.51-2.26.69-.6,1.64-.9,2.86-.9.83,0,1.57.14,2.24.41.67.27,1.23.7,1.69,1.27s.82,1.31,1.07,2.2c.25.89.38,1.96.38,3.2s-.16,2.26-.49,3.21c-.33.96-.8,1.77-1.41,2.42-.61.66-1.35,1.17-2.23,1.52-.87.36-1.87.54-2.97.54-.64,0-1.14-.04-1.51-.13-.37-.09-.76-.23-1.17-.44v4.11c.3.04.6.11.9.21.3.1.62.26.96.47v1.07ZM94.35,79.41c-.64,0-1.21.23-1.71.68-.5.45-.85,1.15-1.06,2.09v7.5c.3.23.62.39.96.49s.78.15,1.33.15c1.07,0,1.86-.52,2.37-1.55.51-1.03.76-2.55.76-4.54,0-1.54-.19-2.73-.58-3.57-.39-.84-1.08-1.26-2.07-1.26Z"/>
      <path class="cls-160" d="M115.49,87.5c0,.41,0,.77.01,1.07s.03.62.07.96l1.95.28v.99c-.23.11-.53.23-.92.34-.39.11-.79.22-1.21.32-.42.1-.84.19-1.25.25-.41.07-.78.12-1.1.15h-.96c-.19-.43-.3-.86-.34-1.3s-.07-.96-.08-1.58h-.14c-.09.38-.25.74-.48,1.09s-.51.66-.86.93c-.35.27-.76.49-1.23.66-.47.17-1,.25-1.58.25-.62,0-1.19-.09-1.72-.28-.53-.19-.99-.45-1.38-.79s-.71-.75-.93-1.23-.34-1.02-.34-1.62c0-.85.16-1.54.48-2.09.32-.54.82-.99,1.51-1.34s1.57-.61,2.65-.78c1.08-.17,2.39-.29,3.93-.37.15-1.62.08-2.8-.2-3.55-.28-.75-.89-1.13-1.83-1.13-.58,0-1.12.09-1.61.28l-1.32,3.38h-1.24c-.15-.23-.3-.48-.44-.77-.14-.29-.27-.6-.39-.93s-.23-.66-.31-1c-.08-.34-.15-.67-.18-.99.71-.49,1.63-.87,2.76-1.16,1.13-.28,2.32-.42,3.58-.42,1.07,0,1.95.12,2.62.35s1.21.55,1.59.96c.39.4.65.88.8,1.42.15.54.23,1.13.23,1.75,0,1.13-.02,2.15-.07,3.06-.05.91-.07,1.85-.07,2.8ZM109.15,89.67c.4,0,.73-.07,1.01-.23.28-.15.52-.33.72-.54.2-.21.35-.43.45-.68s.18-.46.24-.65v-2.82c-.88.02-1.61.07-2.17.17-.56.09-1.01.25-1.32.46-.32.22-.54.49-.66.82s-.18.73-.18,1.2c0,.71.17,1.27.51,1.66.34.4.81.59,1.41.59Z"/>
      <path class="cls-160" d="M126.23,91.59h-7.47v-1.07c.26-.15.55-.28.87-.38.32-.1.65-.2.99-.3v-10.59c-.34-.09-.67-.19-.99-.3-.32-.1-.61-.23-.87-.38v-1.07h7.47v1.07c-.43.26-.95.49-1.55.68v4.42h5.24v-4.42c-.54-.11-1.06-.34-1.55-.68v-1.07h7.47v1.07c-.51.32-1.13.55-1.86.68v10.59c.34.07.67.16.99.26.32.09.61.24.87.42v1.07h-7.47v-1.07c.49-.36,1.01-.59,1.55-.68v-4.56h-5.24v4.56c.32.08.61.17.86.28.25.11.48.25.69.4v1.07Z"/>
      <path class="cls-160" d="M143.4,83.1c.32-.04.74-.08,1.27-.14.53-.06,1.17-.09,1.92-.09,1.54,0,2.77.35,3.69,1.06.92.71,1.38,1.76,1.38,3.17,0,.75-.15,1.41-.45,1.99s-.71,1.05-1.24,1.44c-.53.39-1.15.68-1.88.87s-1.51.3-2.35.3c-.26,0-.63,0-1.11-.01-.48-.01-1-.02-1.55-.04-.56-.02-1.1-.03-1.64-.04s-.98-.01-1.34-.01h-2.62v-1.07c.28-.15.58-.28.9-.38.32-.1.64-.2.96-.3v-10.59c-.36-.08-.69-.17-.99-.28s-.59-.25-.87-.4v-1.07h7.61v1.07c-.45.26-1.02.49-1.69.68v3.86ZM143.4,89.98c.19.04.4.07.62.09.22.02.43.03.64.03.4,0,.76-.05,1.09-.14.32-.09.6-.26.83-.49.23-.23.4-.54.53-.93.12-.39.19-.87.19-1.45,0-.51-.06-.93-.19-1.25s-.3-.59-.51-.79c-.22-.2-.48-.34-.77-.42-.3-.08-.62-.13-.96-.13-.23,0-.47,0-.73.03s-.5.06-.73.11v5.36Z"/>
      <path class="cls-160" d="M179.4,89.75c0,.43-.02.93-.06,1.48-.04.55-.09,1.12-.15,1.71-.07.58-.14,1.16-.23,1.72s-.18,1.07-.3,1.52h-1.1l-1.52-4.6h-13.48l-1.52,4.6h-1.1c-.11-.47-.22-1-.31-1.58s-.17-1.17-.24-1.76c-.07-.59-.11-1.16-.14-1.71s-.04-1.01-.04-1.38h2.45c.53-.79,1.01-1.77,1.45-2.93.44-1.16.82-2.44,1.13-3.82.31-1.38.54-2.84.71-4.37.16-1.53.24-3.07.24-4.61-.49-.09-1-.24-1.52-.42s-1.01-.41-1.47-.68v-1.07h16.21v1.07c-.66.36-1.43.63-2.31.82v16.01h3.3ZM171.88,89.75v-16.07h-4.54c-.09,2.18-.25,4.13-.48,5.86s-.49,3.25-.8,4.57c-.31,1.32-.64,2.44-1,3.37s-.71,1.69-1.04,2.27h7.87Z"/>
      <path class="cls-160" d="M180.28,91.59v-1.07c.36-.21.74-.39,1.14-.54.4-.15.79-.24,1.17-.28v-15.96c-.38-.08-.77-.18-1.18-.32s-.79-.31-1.13-.49v-1.07h4.54c.71,0,1.39-.03,2.03-.08.64-.06,1.37-.08,2.2-.08.9,0,1.78.07,2.62.2.85.13,1.6.37,2.26.71.66.34,1.18.81,1.58,1.42.39.61.59,1.4.59,2.35,0,.6-.11,1.16-.32,1.68-.22.52-.52.97-.9,1.37-.39.4-.84.72-1.35.99-.52.26-1.08.45-1.68.56v.11c.6.08,1.21.22,1.82.42.61.21,1.16.51,1.65.9.49.39.89.89,1.2,1.48.31.59.47,1.29.47,2.1,0,1.01-.23,1.89-.68,2.62-.45.73-1.06,1.33-1.82,1.8-.76.47-1.63.81-2.61,1.03s-1.99.32-3.04.32c-.39,0-.83,0-1.3-.03l-1.41-.06c-.47-.02-.93-.04-1.37-.06-.44-.02-.81-.03-1.11-.03h-3.35ZM187.55,80.65c.32,0,.64-.01.96-.04.32-.03.62-.06.9-.1.73-.3,1.32-.77,1.78-1.4.45-.63.68-1.35.68-2.16,0-1.18-.31-2.05-.93-2.61-.62-.55-1.42-.83-2.4-.83-.41,0-.77,0-1.07.03-.3.02-.57.05-.82.09v7.02h.9ZM188.79,89.92c1.18,0,2.12-.35,2.79-1.06.68-.71,1.01-1.64,1.01-2.81,0-.71-.11-1.3-.34-1.76s-.54-.83-.93-1.1c-.4-.27-.87-.46-1.41-.56s-1.14-.15-1.78-.15h-1.49v7.25c.26.06.54.1.83.14.29.04.73.06,1.31.06Z"/>
    </g>
  </g>
</svg>