<?xml version="1.0" encoding="UTF-8"?>
<!-- The Best Svg Icon site in the world: iconSvg.co, Visit us! https://iconsvg.co -->
<svg fill="#000000" width="800px" height="800px" version="1.1" viewBox="144 144 512 512" xmlns="http://www.w3.org/2000/svg">
 <path d="m234.33 269.13c46.902-87.75 111.96-22.695 131.62 33.285 10.59 28.746 3.0273 40.848-13.617 52.953-31.773 25.719 66.57 124.06 92.289 92.289 12.105-15.129 24.207-24.207 52.953-13.617 55.98 19.668 121.04 84.727 33.285 133.14-98.34 52.953-351-199.71-296.54-298.05zm181.55 1.5117c-12.105 0-12.105-18.156 0-18.156 72.621 0 131.62 59.004 131.62 131.62 0 12.105-18.156 12.105-18.156 0 0-63.543-49.926-113.47-113.47-113.47zm6.0508 46.902c-12.105 0-12.105-18.156 0-18.156 43.875 0 80.188 34.797 80.188 78.672 0 12.105-18.156 12.105-18.156 0 0-33.285-28.746-60.52-62.031-60.52zm-152.81-62.031c-31.773 28.746-27.234 63.543-1.5117 110.45 42.363 78.672 187.61 219.38 254.18 183.07 30.258-16.641 45.387-39.336 16.641-65.055-16.641-15.129-59.004-43.875-71.109-30.258-15.129 15.129-13.617 25.719-51.441 18.156-31.773-6.0508-80.188-54.465-87.75-87.75-12.105-60.52 34.797-31.773 18.156-75.648-4.5391-16.641-40.848-84.727-77.16-52.953z"/>
</svg>