<?xml version="1.0" encoding="UTF-8"?>
<!-- The Best Svg Icon site in the world: iconSvg.co, Visit us! https://iconsvg.co -->
<svg width="800px" height="800px" version="1.1" viewBox="144 144 512 512" xmlns="http://www.w3.org/2000/svg">
 <defs>
  <clipPath id="a">
   <path d="m258 148.09h284v503.81h-284z"/>
  </clipPath>
 </defs>
 <g clip-path="url(#a)">
  <path d="m462.98 651.9h-125.95c-3.7148 0-6.9219-2.5938-7.6992-6.2266l-70.848-330.62c-0.32812-1.5273-0.19531-3.1211 0.38281-4.5742l62.977-157.44v0.003906c1.1992-2.9883 4.0938-4.9492 7.3125-4.9453h141.7c3.2188-0.003906 6.1133 1.957 7.3125 4.9453l62.977 157.44v-0.003907c0.57812 1.4531 0.71484 3.0469 0.38672 4.5742l-70.848 330.62h-0.003906c-0.77344 3.6328-3.9844 6.2266-7.6953 6.2266zm-119.59-15.742h113.21l69.016-322.06-60.105-150.27h-131.04l-60.105 150.26z"/>
 </g>
 <path d="m303.35 278.91 6.4844-15.746 14.559 5.9961-6.4844 15.746z"/>
 <path d="m458.38 566.89-15.422-3.1484 51.168-249.54-52.168-126.74h-83.918l-27.168 65.969-14.555-5.9922 29.125-70.848h0.003906c1.2227-2.9609 4.1172-4.8906 7.3203-4.8711h94.465c3.1914-0.003907 6.0664 1.9219 7.2812 4.8711l55.105 133.82c0.59375 1.4531 0.74219 3.0469 0.42578 4.582z"/>
 <path d="m439.36 628.29h-78.723c-3.7383-0.003906-6.957-2.6367-7.7031-6.3008l-62.977-307.01c-0.32031-1.5352-0.17188-3.1289 0.42188-4.582l6.4883-15.742 14.562 6-5.5742 13.539 61.207 298.35h65.875l6.5898-32.086 15.414 3.1484-7.8711 38.375h-0.003906c-0.74609 3.668-3.9688 6.3047-7.707 6.3086z"/>
 <path d="m415.74 415.74h-31.488c-4.3477 0-7.8711-3.5234-7.8711-7.8711v-55.105h-23.617c-4.3477 0-7.8711-3.5234-7.8711-7.8711v-31.488c0-4.3477 3.5234-7.8711 7.8711-7.8711h23.617v-23.617c0-4.3477 3.5234-7.8711 7.8711-7.8711h31.488c2.0898 0 4.0898 0.82812 5.5664 2.3047 1.4766 1.4766 2.3047 3.4805 2.3047 5.5664v23.617h23.617c2.0898 0 4.0898 0.82812 5.5664 2.3047 1.4766 1.4766 2.3047 3.4805 2.3047 5.5664v31.488c0 2.0859-0.82812 4.0898-2.3047 5.5664-1.4766 1.4766-3.4766 2.3047-5.5664 2.3047h-23.617v55.105c0 2.0859-0.82812 4.0898-2.3047 5.5664-1.4766 1.4766-3.4766 2.3047-5.5664 2.3047zm-23.617-15.742h15.742l0.003906-55.105c0-4.3477 3.5234-7.8711 7.8711-7.8711h23.617v-15.746h-23.617c-4.3477 0-7.8711-3.5234-7.8711-7.8711v-23.617h-15.746v23.617c0 2.0859-0.82812 4.0898-2.3047 5.5664-1.4766 1.4766-3.4766 2.3047-5.5664 2.3047h-23.617v15.742h23.617v0.003907c2.0898 0 4.0898 0.82812 5.5664 2.3047 1.4766 1.4766 2.3047 3.4766 2.3047 5.5664z"/>
</svg>