<?xml version="1.0" encoding="UTF-8"?>
<!-- The Best Svg Icon site in the world: iconSvg.co, Visit us! https://iconsvg.co -->
<svg fill="#000000" width="800px" height="800px" version="1.1" viewBox="144 144 512 512" xmlns="http://www.w3.org/2000/svg">
 <path d="m636.16 305.54h-15.746v-47.594c0.003907-6.7031-2.8867-13.078-7.9258-17.492-5.0391-4.418-11.734-6.4453-18.379-5.5664-6.6406 0.87891-12.582 4.5781-16.297 10.156l-6.5664 9.8477-7.8711-5.918v-0.003906c-18.82-13.883-43.18-17.836-65.426-10.617l-36.25 12.082h-18.105c-7.1484 0.003906-14.246-1.1523-21.027-3.418-21.883-7.1758-45.707-5.4805-66.352 4.7266-8.6523 4.3086-18.188 6.5547-27.852 6.5625h-16.105c-6.2891 0-12.121-3.2852-15.383-8.6562-9.543-15.887-25.586-26.777-43.871-29.789s-36.969 2.1562-51.105 14.141c-14.137 11.984-22.297 29.57-22.316 48.102v23.438h-15.746c-4.3477 0-7.8711 3.5234-7.8711 7.8711v31.488c0 6.2617 2.4883 12.27 6.918 16.699 4.4297 4.4297 10.438 6.918 16.699 6.918h31.488v141.9c-8.8672 6.6523-14.52 16.734-15.57 27.773-1.0469 11.035 2.6094 22 10.07 30.199 7.457 8.2031 18.031 12.875 29.117 12.875s21.656-4.6719 29.113-12.875c7.4609-8.1992 11.117-19.164 10.07-30.199-1.0469-11.039-6.6992-21.121-15.57-27.773v-39.562h283.39v39.566-0.003906c-8.8672 6.6523-14.52 16.734-15.57 27.773-1.0469 11.035 2.6094 22 10.07 30.199 7.457 8.2031 18.031 12.875 29.117 12.875s21.656-4.6719 29.113-12.875c7.4609-8.1992 11.117-19.164 10.07-30.199-1.0469-11.039-6.6992-21.121-15.57-27.773v-141.9h31.488c6.2656 0 12.27-2.4883 16.699-6.918 4.4297-4.4297 6.918-10.438 6.918-16.699v-31.488c0-2.0859-0.82812-4.0898-2.3047-5.5664-1.4766-1.4766-3.4805-2.3047-5.5664-2.3047zm-440.84-23.438c-0.003907-13.922 6.1133-27.145 16.73-36.156 10.613-9.0117 24.652-12.902 38.391-10.637 13.742 2.2617 25.789 10.449 32.953 22.391 6.1055 10.113 17.043 16.309 28.859 16.352h16.105c12.102-0.011719 24.035-2.8281 34.863-8.2266 6.9492-3.4297 14.41-5.6953 22.09-6.7148 3.0156 13.988 13.191 25.344 26.766 29.875l1.2109 0.41016 4.9766-14.957-1.25-0.38672c-7.2773-2.4297-13.023-8.0898-15.566-15.328 5.4727 0.44141 10.875 1.5273 16.094 3.2344 8.375 2.793 17.145 4.2188 25.977 4.2227h19.453c0.84375 0 1.6836-0.13672 2.4844-0.40234l37.457-12.484c2.7266-0.88281 5.5234-1.543 8.3594-1.9766 3.0195 13.957 13.172 25.289 26.719 29.82l1.2109 0.41016 4.9766-14.957-1.2148-0.41016c-7.1875-2.418-12.875-7.9883-15.445-15.125 9.5664 1.1719 18.668 4.7891 26.422 10.512l14.516 10.91c1.7305 1.2969 3.918 1.8242 6.0508 1.4609 2.1328-0.36328 4.0195-1.5898 5.2227-3.3906l11.18-16.766h-0.003906c1.8359-2.7578 5.2578-3.9844 8.4258-3.0273 3.168 0.96094 5.3359 3.8789 5.3359 7.1914v47.594h-409.35zm346.37 141.52h-283.39v-55.102h59.039l-2.3633 3.1484h0.003907c-1.0234 1.3633-1.5742 3.0195-1.5742 4.7227v31.488c0 2.0859 0.82812 4.0898 2.3047 5.5664 1.4766 1.4766 3.4805 2.3047 5.5664 2.3047h47.234c2.0859 0 4.0898-0.82813 5.5664-2.3047s2.3047-3.4805 2.3047-5.5664v-31.488c0-1.7031-0.55469-3.3594-1.5742-4.7227l-2.3633-3.1484h169.25zm-181.06-44.609v20.996h-31.488v-20.996l15.742-20.988zm-188.93-34.109v-23.617h165.31v20.996l-7.875 10.492h-149.57c-4.3477 0-7.8711-3.5234-7.8711-7.8711zm62.977 220.42c-6.2656 0-12.273-2.4883-16.699-6.918-4.4297-4.4297-6.918-10.438-6.918-16.699 0-6.2656 2.4883-12.27 6.918-16.699 4.4258-4.4297 10.434-6.918 16.699-6.918 6.2617 0 12.27 2.4883 16.699 6.918 4.4258 4.4297 6.9141 10.434 6.9141 16.699 0 6.2617-2.4883 12.27-6.9141 16.699-4.4297 4.4297-10.438 6.918-16.699 6.918zm0-62.977c-2.6445-0.003907-5.2812 0.26172-7.875 0.78516v-134.61h15.742l0.003906 134.61c-2.5898-0.52344-5.2305-0.78906-7.8711-0.78516zm23.617-47.23-0.003907-15.746h283.39v15.742zm307.01 110.21c-6.2656 0-12.273-2.4883-16.699-6.918-4.4297-4.4297-6.918-10.438-6.918-16.699 0-6.2656 2.4883-12.27 6.918-16.699 4.4258-4.4297 10.434-6.918 16.699-6.918 6.2617 0 12.27 2.4883 16.699 6.918 4.4258 4.4297 6.9141 10.434 6.9141 16.699 0 6.2617-2.4883 12.27-6.9141 16.699-4.4297 4.4297-10.438 6.918-16.699 6.918zm7.8711-62.188v-0.003906c-5.1953-1.0586-10.551-1.0586-15.746 0v-134.61h15.742zm55.105-158.23c0 2.0859-0.83203 4.0898-2.3086 5.5664-1.4766 1.4766-3.4766 2.3047-5.5664 2.3047h-259.78l-7.8711-10.492v-20.996h275.52z"/>
</svg>